<?xml version="1.0" standalone="no"?><!DOCTYPE svg PUBLIC "-//W3C//DTD SVG 1.1//EN" "http://www.w3.org/Graphics/SVG/1.1/DTD/svg11.dtd"><svg t="1767597414223" class="icon" viewBox="0 0 1024 1024" version="1.1" xmlns="http://www.w3.org/2000/svg" p-id="2643" xmlns:xlink="http://www.w3.org/1999/xlink" width="200" height="200"><path d="M396.288 735.846c2.253-57.753 29.286-340.377 343.04-352.87v-90.931c-0.41-5.12-0.205-16.794 8.192-26.01 9.626-10.65 25.395-13.107 43.418-5.53l4.096 1.844L971.366 445.44c3.482 3.891 18.432 21.914 18.432 42.803 0 21.914-18.636 40.55-22.323 44.032l-176.537 194.15c-4.506 4.711-15.36 14.132-29.492 14.132-10.854 0-20.684-5.94-26.01-15.565-3.686-6.758-5.324-15.155-5.324-26.624V588.186c-50.79-1.23-199.27 8.806-285.9 159.539-5.735 9.83-14.542 15.565-24.167 15.565h-9.216l-7.578-6.759c-7.577-7.577-7.168-17.408-6.963-20.685z m326.656-189.235c19.456 0 31.54 1.639 32.154 1.639l18.636 2.457V682.19l162.202-178.381c5.734-5.53 10.445-13.107 10.445-15.77 0-4.3-4.506-11.673-7.783-15.36L782.541 310.682v113.254h-21.709c-223.642 0-292.25 145.408-312.934 244.531C541.9 559.718 667.853 546.611 722.944 546.611zM526.131 321.126c0-18.022-14.745-32.768-32.768-32.768H250.675c-18.022 0-32.768 14.746-32.768 32.768s14.746 32.768 32.768 32.768h242.688c18.023 0 32.768-14.745 32.768-32.768zM349.39 577.741h-98.714c-18.022 0-32.768 14.745-32.768 32.768s14.746 32.768 32.768 32.768h98.714c18.022 0 32.768-14.746 32.768-32.768s-14.541-32.768-32.768-32.768z m59.392-112.026c0-18.022-14.746-32.768-32.768-32.768H250.675c-18.022 0-32.768 14.746-32.768 32.768s14.746 32.768 32.768 32.768h125.338c18.227 0.205 32.768-14.54 32.768-32.768z m0 0" fill="#0E932E" p-id="2644"></path><path d="M822.886 765.338v47.104c0 31.948-30.72 57.958-62.873 57.958H171.008c-31.949 0-57.958-26.01-57.958-57.958V206.029c1.638-30.72 26.828-55.091 57.958-55.091h603.34c30.926 0 56.32 24.37 57.96 55.09v19.457s35.225 53.862 60.825 87.245V206.029c0-13.517-2.458-27.034-6.963-39.936-16.18-44.442-58.983-76.186-108.954-76.186H168.141c-54.067 0-99.533 36.864-112.435 87.04-2.458 9.421-3.687 19.251-3.687 29.082v609.075c0 64.102 52.02 116.122 115.917 116.122h609.075c58.983 0 107.52-43.828 115.098-100.762 0 0 0.819-153.6-2.253-150.733-78.643 85.607-66.56 85.811-66.97 85.607z" fill="#0E932E" p-id="2645"></path></svg>