<?xml version="1.0" standalone="no"?><!DOCTYPE svg PUBLIC "-//W3C//DTD SVG 1.1//EN" "http://www.w3.org/Graphics/SVG/1.1/DTD/svg11.dtd"><svg t="1775819605512" class="icon" viewBox="0 0 1024 1024" version="1.1" xmlns="http://www.w3.org/2000/svg" p-id="4812" xmlns:xlink="http://www.w3.org/1999/xlink" width="200" height="200"><path d="M922.162102 558.945195l-0.002047 0.033769 0.002047-0.033769z" fill="#040000" p-id="4813"></path><path d="M568.4952 35.33681c0.435928 0.48914 0.873903 0.975211 1.312902 1.461281-0.432859-0.491187-0.870834-0.978281-1.312902-1.461281zM431.560458 36.753065c0.420579-0.465604 0.840134-0.931209 1.257643-1.399882-0.423649 0.461511-0.842181 0.929162-1.257643 1.399882z" fill="#040000" p-id="4814"></path><path d="M883.040083 132.786259h-85.276199c-85.97614 0-163.247015-37.214577-216.619596-96.40363-0.440022-0.48607-0.876973-0.972141-1.312902-1.461282-16.83441-18.321274-40.990576-29.806863-67.831898-29.806863-26.848485 0-51.010791 11.491729-67.845201 29.823236-0.417509 0.468674-0.837064 0.934279-1.257643 1.399883-53.374628 59.214636-130.663922 96.448656-216.661551 96.448656h-85.275176c-28.257577 0-51.16531 22.907733-51.16531 51.16531v362.252441c0 2.288113 0.165776 4.536316 0.456395 6.744611 9.328459 236.19749 184.921663 429.646364 412.979776 466.567251 0.511653 0.082888 1.023306 0.165776 1.537005 0.246617 2.363837 0.335644 4.77577 0.51984 7.231705 0.51984s4.868891-0.184195 7.232729-0.51984c0.5137-0.080841 1.025353-0.163729 1.537005-0.246617 228.057089-36.920888 403.650293-230.369761 412.979776-466.567251 0.289596-2.208295 0.455371-4.455475 0.455371-6.744611V183.951569c0.001023-28.257577-22.905686-51.16531-51.164286-51.16531z m-0.030699 400.367527h-0.02763c0 202.149023-135.831618 372.549971-321.196372 424.949388a439.068967 439.068967 0 0 1-49.785894 10.999518 439.118086 439.118086 0 0 1-49.785893-10.999518c-185.364755-52.398394-321.19535-222.800365-321.196373-424.949388h-0.027629v-328.706417c0-11.30344 9.162684-20.466124 20.466124-20.466124h64.779376v-0.028653c66.119907 0 127.85597-18.738783 180.220594-51.166333a343.025541 343.025541 0 0 0 16.745383-11.081383 344.967776 344.967776 0 0 0 57.413617-50.833759l-0.005116 0.005117h0.064468c7.507998-8.921183 18.752086-14.595416 31.324426-14.595416 12.573363 0 23.817452 5.674233 31.324426 14.595416h0.065492a344.997452 344.997452 0 0 0 57.409524 50.828642 343.986425 343.986425 0 0 0 16.744359 11.081383c52.364625 32.428573 114.100688 51.166333 180.219571 51.166333v0.028653h64.780399c11.304464 0 20.466124 9.162684 20.466124 20.466124v328.706417z" fill="#040000" p-id="4815"></path><path d="M732.825896 327.353606c-9.105379-10.80202-25.245987-12.177344-36.049031-3.069918L445.716876 535.940249 330.29203 399.019833c-9.106402-10.80202-25.247011-12.17632-36.049031-3.069919-10.80202 9.106402-12.177344 25.245987-3.069918 36.049031l131.915425 156.480914c9.106402 10.800997 25.247011 12.175297 36.049031 3.069918l270.619464-228.14714c10.800997-9.107425 12.175297-25.247011 3.068895-36.049031z" fill="#040000" p-id="4816"></path></svg>