<?xml version="1.0" standalone="no"?><!DOCTYPE svg PUBLIC "-//W3C//DTD SVG 1.1//EN" "http://www.w3.org/Graphics/SVG/1.1/DTD/svg11.dtd"><svg t="1775880165490" class="icon" viewBox="0 0 1170 1024" version="1.1" xmlns="http://www.w3.org/2000/svg" p-id="4906" xmlns:xlink="http://www.w3.org/1999/xlink" width="228.515625" height="200"><path d="M417.996723 585.148172h313.411954V512.000512h-313.753287l41.198892-41.164759a38.570628 38.570628 0 0 0 7.953059-11.878388 36.590897 36.590897 0 0 0 0-27.989305 37.956229 37.956229 0 0 0-7.953059-11.878388 35.054898 35.054898 0 0 0-11.844254-7.918926 35.225565 35.225565 0 0 0-13.994653-2.79893 36.863963 36.863963 0 0 0-25.873041 10.683722L305.834702 520.36317a37.068763 37.068763 0 0 0-10.069323 13.073054 36.42023 36.42023 0 0 0-2.047998 24.405309c0.716799 2.730664 1.706665 5.290661 2.969597 7.748259a37.819696 37.819696 0 0 0 10.786123 12.492787l99.6351 99.635101a37.956229 37.956229 0 0 0 11.844255 7.918925 38.399962 38.399962 0 0 0 13.994652 2.730664 36.078897 36.078897 0 0 0 20.343447-6.143994 38.229295 38.229295 0 0 0 10.069323-10.103456 37.785562 37.785562 0 0 0 5.461328-13.175454 36.52263 36.52263 0 0 0 0-14.267719 35.157298 35.157298 0 0 0-5.461328-13.175454 38.331695 38.331695 0 0 0-4.539729-5.529594l-40.857559-40.823426zM0.000341 292.523398h1170.260163v585.147148a146.670787 146.670787 0 0 1-6.246393 42.461825 140.49266 140.49266 0 0 1-4.881062 13.516786 136.294264 136.294264 0 0 1-13.55092 25.292775 149.333184 149.333184 0 0 1-28.808504 31.812235 149.162518 149.162518 0 0 1-36.761564 22.084244 148.513985 148.513985 0 0 1-41.676758 10.410656c-4.744529 0.477866-9.557324 0.716799-14.335986 0.7168H146.261528a147.080386 147.080386 0 0 1-55.944477-11.127456 138.820128 138.820128 0 0 1-25.326908-13.516786 148.377452 148.377452 0 0 1-31.778102-28.842638 147.728919 147.728919 0 0 1-26.965306-50.346616A145.680921 145.680921 0 0 1 0.000341 877.70468L0.034475 292.557531zM251.323823 0.001024h667.613199a145.953987 145.953987 0 0 1 112.298555 52.667681l139.024927 166.7753H0.000341l138.990795-166.7753A146.841453 146.841453 0 0 1 189.337752 13.82501 144.998255 144.998255 0 0 1 251.323823 0.001024z m480.084854 511.999488v73.14766a72.738061 72.738061 0 0 1 40.652759 12.322121 72.703927 72.703927 0 0 1 26.965306 32.836234c1.843198 4.437329 3.174397 9.011191 4.095996 13.721586a68.471398 68.471398 0 0 1 0 28.535438 74.786059 74.786059 0 0 1-10.854389 26.350907 72.84046 72.84046 0 0 1-32.870367 26.965307 71.714062 71.714062 0 0 1-27.989305 5.563728v73.113526a147.319319 147.319319 0 0 0 55.97861-11.127455 147.455853 147.455853 0 0 0 36.795697-22.050111 142.847857 142.847857 0 0 0 28.876771-31.812235 147.899585 147.899585 0 0 0 13.55092-25.292775 159.982773 159.982773 0 0 0 8.328525-27.443172 145.305455 145.305455 0 0 0 2.79893-28.535439 147.797186 147.797186 0 0 0-24.678375-81.271385 151.073982 151.073982 0 0 0-40.34556-40.34556 152.848914 152.848914 0 0 0-25.326908-13.550919 142.199324 142.199324 0 0 0-27.374906-8.328525 150.596116 150.596116 0 0 0-28.603704-2.798931z m-109.670291 219.442981a36.078897 36.078897 0 0 0-20.343446 6.143993 34.815965 34.815965 0 0 0-10.069323 10.103457 35.225565 35.225565 0 0 0-5.461328 13.175453 36.556763 36.556763 0 0 0 2.047998 21.128513 38.092762 38.092762 0 0 0 7.953058 11.878388 35.020765 35.020765 0 0 0 11.878389 7.918925 35.089032 35.089032 0 0 0 13.994652 2.764797h109.670291V731.477626h-109.670291z" fill="#bfbfbf" p-id="4907"></path></svg>