<?xml version="1.0" standalone="no"?><!DOCTYPE svg PUBLIC "-//W3C//DTD SVG 1.1//EN" "http://www.w3.org/Graphics/SVG/1.1/DTD/svg11.dtd"><svg t="1777821307246" class="icon" viewBox="0 0 1024 1024" version="1.1" xmlns="http://www.w3.org/2000/svg" p-id="8906" xmlns:xlink="http://www.w3.org/1999/xlink" width="200" height="200"><path d="M512 80.004741c176.734815 0 320 143.265185 320 320v352.009481H192V400.004741C192 223.269926 335.265185 80.004741 512 80.004741z m-3.223704 170.704592c-5.499259 0-10.619259 2.768593-13.653333 7.35763l-128.132741 193.099852a16.554667 16.554667 0 0 0 13.653334 25.656889h100.750222v121.552592a16.402963 16.402963 0 1 0 30.094222 9.159111l128.151704-193.080888a16.554667 16.554667 0 0 0-13.672297-25.675852h-100.750222v-121.552593c0-9.102222-7.35763-16.497778-16.421926-16.497778z" fill="#515151" p-id="8907"></path><path d="M128 816.014222m39.992889 0l688.014222 0q39.992889 0 39.992889 39.992889l0 0.018963q0 39.992889-39.992889 39.992889l-688.014222 0q-39.992889 0-39.992889-39.992889l0-0.018963q0-39.992889 39.992889-39.992889Z" fill="#515151" fill-opacity=".5" p-id="8908"></path></svg>