<?xml version="1.0" standalone="no"?><!DOCTYPE svg PUBLIC "-//W3C//DTD SVG 1.1//EN" "http://www.w3.org/Graphics/SVG/1.1/DTD/svg11.dtd"><svg t="1752073963846" class="icon" viewBox="0 0 1024 1024" version="1.1" xmlns="http://www.w3.org/2000/svg" p-id="6876" xmlns:xlink="http://www.w3.org/1999/xlink" width="200" height="200"><path d="M384.12 927.82h-71.84c-40.63 0-78.83-15.83-107.54-44.58s-44.5-66.96-44.46-107.59l0.31-264.31c0.02-17.66 14.34-31.96 32-31.96h0.04c17.67 0.02 31.98 14.36 31.96 32.04l-0.31 264.31c-0.03 23.52 9.11 45.65 25.74 62.29 16.62 16.64 38.74 25.81 62.26 25.81h71.84c17.67 0 32 14.33 32 32s-14.33 31.99-32 31.99zM127.95 415.98c-10.35 0-20.5-5.01-26.67-14.27-9.79-14.71-5.81-34.58 8.91-44.37l384.26-255.8a32.006 32.006 0 0 1 35.48 0.01l383.89 255.8c14.71 9.8 18.69 29.67 8.89 44.37-9.8 14.71-29.67 18.69-44.37 8.89L512.18 166.62 145.66 410.61a31.848 31.848 0 0 1-17.71 5.37zM792.08 927.26H597.32c-74.26 0-134.68-60.42-134.68-134.68 0-55.13 33.16-103.7 82.75-124.31a134.863 134.863 0 0 1 40.22-62.13c24.53-21.45 56-33.26 88.62-33.26 32.23 0 63.41 11.57 87.81 32.57a134.968 134.968 0 0 1 37.47 52.67c70.82 3.87 127.25 62.71 127.25 134.48 0 74.25-60.42 134.66-134.68 134.66zM674.23 636.88c-34.95 0-65.03 26.03-69.96 60.56a31.997 31.997 0 0 1-24 26.54c-31.58 7.81-53.63 36.02-53.63 68.61 0 38.97 31.71 70.68 70.68 70.68h194.76c38.97 0 70.68-31.71 70.68-70.68s-31.71-70.68-70.68-70.68c-3.79 0-7.62 0.31-11.38 0.91-8.39 1.35-16.97-0.69-23.85-5.66s-11.5-12.49-12.84-20.88c-5.5-34.42-34.85-59.4-69.78-59.4z" fill="#303133" p-id="6877"></path></svg>