<?xml version="1.0" standalone="no"?><!DOCTYPE svg PUBLIC "-//W3C//DTD SVG 1.1//EN" "http://www.w3.org/Graphics/SVG/1.1/DTD/svg11.dtd"><svg t="1752032373276" class="icon" viewBox="0 0 1025 1024" version="1.1" xmlns="http://www.w3.org/2000/svg" p-id="10512" xmlns:xlink="http://www.w3.org/1999/xlink" width="200.1953125" height="200"><path d="M405.68768 704.32H267.19168l56.96-324.608h138.432z" fill="#0050FF" fill-opacity="0.6" p-id="10513"></path><path d="M657.84768 704.32H519.35168l79.808-454.4h138.432z" fill="#0050FF" fill-opacity="0.8" p-id="10514"></path><path d="M886.58368 50.432l-12.8 71.424-38.4 218.816-2.368 13.568-3.264 18.368-62.528 356.736a130.688 130.688 0 0 1-123.136 104.704H235.89568a85.696 85.696 0 0 1-86.592-104.512L215.09568 354.56a130.624 130.624 0 0 1 123.072-104.704H484.85568l24.384-139.2H324.66368a256 256 0 0 0-241.28 205.248L4.15168 768.128a168 168 0 0 0 169.152 205.248h484.16a256 256 0 0 0 241.216-205.248l74.944-427.2 4.416-25.024L1025.01568 50.688z" fill="#0051FF" p-id="10515"></path></svg>