<?xml version="1.0" standalone="no"?><!DOCTYPE svg PUBLIC "-//W3C//DTD SVG 1.1//EN" "http://www.w3.org/Graphics/SVG/1.1/DTD/svg11.dtd"><svg t="1758330028681" class="icon" viewBox="0 0 1068 1024" version="1.1" xmlns="http://www.w3.org/2000/svg" p-id="5765" xmlns:xlink="http://www.w3.org/1999/xlink" width="66.75" height="64"><path d="M921.288348 11.174957H147.322435A147.72313 147.72313 0 0 0 0 158.541913v435.95687a147.678609 147.678609 0 0 0 147.366957 147.233391h26.356869V384.979478H894.886957v356.752696h26.401391A147.678609 147.678609 0 0 0 1068.521739 594.498783V158.541913A147.678609 147.678609 0 0 0 921.288348 11.130435zM176.261565 292.997565a88.33113 88.33113 0 1 1 0.044522-176.573217 88.33113 88.33113 0 0 1-0.044522 176.617739z" fill="#FFA751" p-id="5766"></path><path d="M755.355826 462.803478H313.165913a32.812522 32.812522 0 0 0-32.768 32.768v480.523131c0 18.075826 14.692174 32.768 32.768 32.768h442.10087c18.075826 0 32.768-14.692174 32.768-32.768V495.526957a32.723478 32.723478 0 0 0-32.678957-32.678957z m-84.591304 412.493913H397.757217a38.199652 38.199652 0 0 1 0-76.399304h273.007305a38.199652 38.199652 0 0 1 0 76.399304z m0-167.268174H397.757217a38.199652 38.199652 0 0 1 0-76.399304h273.007305a38.199652 38.199652 0 0 1 0 76.399304z" fill="#FFA751" p-id="5767"></path></svg>