<?xml version="1.0" standalone="no"?><!DOCTYPE svg PUBLIC "-//W3C//DTD SVG 1.1//EN" "http://www.w3.org/Graphics/SVG/1.1/DTD/svg11.dtd"><svg t="1777857312535" class="icon" viewBox="0 0 1024 1024" version="1.1" xmlns="http://www.w3.org/2000/svg" p-id="6058" xmlns:xlink="http://www.w3.org/1999/xlink" width="200" height="200"><path d="M882.9 34H141.2C63.5 34 0 97.5 0 175.2V593c0 77.6 63.5 141.1 141.2 141.1h25.3V392.2h691.1v341.9h25.3c77.6 0 141.1-63.5 141.1-141.1V175.2C1024 97.5 960.5 34 882.9 34z m-714 270.1c-46.7 0-84.6-37.9-84.6-84.6 0-46.7 37.9-84.6 84.6-84.6 46.7 0 84.6 37.9 84.6 84.6-0.1 46.8-38 84.6-84.6 84.6z" fill="#2c2c2c" p-id="6059"></path><path d="M723.9 466.8H300.1c-17.3 0-31.4 14.1-31.4 31.4v460.5c0 17.3 14.1 31.4 31.4 31.4h423.7c17.3 0 31.4-14.1 31.4-31.4V498.1c0.1-17.2-14.1-31.3-31.3-31.3z m-81.1 395.3H381.2c-20.2 0-36.6-16.4-36.6-36.6 0-20.2 16.4-36.6 36.6-36.6h261.6c20.2 0 36.6 16.4 36.6 36.6 0 20.2-16.4 36.6-36.6 36.6z m0-160.3H381.2c-20.2 0-36.6-16.4-36.6-36.6s16.4-36.6 36.6-36.6h261.6c20.2 0 36.6 16.4 36.6 36.6s-16.4 36.6-36.6 36.6z" fill="#2c2c2c" p-id="6060"></path></svg>