<?xml version="1.0" standalone="no"?><!DOCTYPE svg PUBLIC "-//W3C//DTD SVG 1.1//EN" "http://www.w3.org/Graphics/SVG/1.1/DTD/svg11.dtd"><svg t="1776414423891" class="icon" viewBox="0 0 1024 1024" version="1.1" xmlns="http://www.w3.org/2000/svg" p-id="7120" xmlns:xlink="http://www.w3.org/1999/xlink" width="200" height="200"><path d="M512 2.048c150.528 0 273.408 121.856 273.408 273.408S662.528 548.864 512 548.864s-273.408-122.88-273.408-273.408S361.472 2.048 512 2.048z m0 72.704c-110.592 0-200.704 90.112-200.704 200.704S401.408 475.136 512 475.136s200.704-90.112 200.704-200.704S622.592 74.752 512 74.752zM972.8 1013.76H51.2c-22.528 0-40.96-18.432-40.96-40.96 0-186.368 113.664-358.4 276.48-417.792 12.288-4.096 25.6-3.072 36.864 4.096l189.44 123.904 199.68-117.76c19.456-11.264 45.056-5.12 56.32 14.336 11.264 19.456 5.12 45.056-14.336 56.32L532.48 766.976c-13.312 8.192-29.696 7.168-43.008-1.024L296.96 640C203.776 681.984 109.568 785.408 94.208 931.84H972.8c22.528 0 40.96 18.432 40.96 40.96s-18.432 40.96-40.96 40.96zM967.68 643.072h-81.92c-22.528 0-40.96-18.432-40.96-40.96s18.432-40.96 40.96-40.96h81.92c22.528 0 40.96 18.432 40.96 40.96s-18.432 40.96-40.96 40.96z" fill="#333333" p-id="7121"></path><path d="M967.68 828.416h-184.32c-22.528 0-40.96-18.432-40.96-40.96s18.432-40.96 40.96-40.96h184.32c22.528 0 40.96 18.432 40.96 40.96s-18.432 40.96-40.96 40.96z" fill="#333333" p-id="7122"></path></svg>