<?xml version="1.0" standalone="no"?><!DOCTYPE svg PUBLIC "-//W3C//DTD SVG 1.1//EN" "http://www.w3.org/Graphics/SVG/1.1/DTD/svg11.dtd"><svg t="1776414385272" class="icon" viewBox="0 0 1024 1024" version="1.1" xmlns="http://www.w3.org/2000/svg" p-id="6099" xmlns:xlink="http://www.w3.org/1999/xlink" width="200" height="200"><path d="M760.685714 989.866667c-131.657143 0-234.057143-107.27619-234.057143-234.057143s107.27619-234.057143 234.057143-234.057143c131.657143 0 234.057143 107.27619 234.057143 234.057143s-102.4 234.057143-234.057143 234.057143z m0-394.971429c-87.771429 0-156.038095 68.266667-156.038095 156.038095s68.266667 156.038095 156.038095 156.038096 156.038095-68.266667 156.038096-156.038096-68.266667-156.038095-156.038096-156.038095z" p-id="6100"></path><path d="M721.67619 648.533333h78.019048v58.514286h-78.019048zM721.67619 731.428571h78.019048v136.533334h-78.019048zM906.971429 536.380952c-4.87619-185.295238-146.285714-336.457143-326.704762-355.961904l9.752381-97.52381c234.057143 24.380952 409.6 214.552381 414.47619 448.609524l-97.523809 4.87619z" p-id="6101"></path><path d="M546.133333 1004.495238c-234.057143 0-429.104762-170.666667-458.361904-404.723809l97.523809-9.752381c24.380952 185.295238 175.542857 316.952381 360.838095 316.952381h9.752381v97.523809h-9.752381z" p-id="6102"></path><path d="M19.504762 526.628571v-48.761904C14.628571 360.838095 58.514286 243.809524 146.285714 156.038095 229.180952 68.266667 341.333333 19.504762 463.238095 19.504762h48.761905l9.752381 502.247619-502.247619 4.87619z m394.971428-404.723809C258.438095 146.285714 136.533333 273.066667 117.028571 429.104762l302.32381-4.876191-4.876191-302.323809z" p-id="6103"></path></svg>