<?xml version="1.0" standalone="no"?><!DOCTYPE svg PUBLIC "-//W3C//DTD SVG 1.1//EN" "http://www.w3.org/Graphics/SVG/1.1/DTD/svg11.dtd"><svg t="1776414335176" class="icon" viewBox="0 0 1024 1024" version="1.1" xmlns="http://www.w3.org/2000/svg" p-id="4866" xmlns:xlink="http://www.w3.org/1999/xlink" width="200" height="200"><path d="M501.540571 310.637714a39.497143 39.497143 0 0 1 54.052572-8.630857 41.691429 41.691429 0 0 1 12.214857 54.564572l-3.072 4.608L428.178286 540.525714a39.497143 39.497143 0 0 1-54.345143 9.069715 41.691429 41.691429 0 0 1-11.922286-55.003429l3.072-4.608 136.557714-179.346286z" p-id="4867"></path><path d="M235.300571 303.542857a39.350857 39.350857 0 0 1 52.662858 2.925714l3.657142 4.169143L428.032 490.057143a41.837714 41.837714 0 0 1-4.900571 55.808 39.424 39.424 0 0 1-54.637715-1.097143l-3.657143-4.169143-136.484571-179.273143a41.764571 41.764571 0 0 1 6.875429-57.709714z" p-id="4868"></path><path d="M396.507429 475.062857c20.48 0 37.302857 15.652571 39.862857 35.986286l0.292571 5.12v195.364571a40.667429 40.667429 0 0 1-37.595428 40.96 40.374857 40.374857 0 0 1-42.276572-35.766857l-0.292571-5.12V516.096c0-22.674286 17.92-41.106286 40.082285-41.106286z" p-id="4869"></path><path d="M534.893714 476.525714c21.211429 0 38.692571 16.896 40.009143 38.546286a40.813714 40.813714 0 0 1-34.962286 43.300571l-5.046857 0.365715H261.851429a40.521143 40.521143 0 0 1-40.009143-38.473143 40.813714 40.813714 0 0 1 34.962285-43.373714l5.046858-0.365715h273.115428z m0 121.197715c21.211429 0 38.692571 16.822857 40.009143 38.473142a40.813714 40.813714 0 0 1-34.962286 43.373715l-5.046857 0.292571H261.851429a40.521143 40.521143 0 0 1-40.009143-38.473143 40.813714 40.813714 0 0 1 34.962285-43.373714l5.046858-0.292571h273.115428zM947.346286 130.486857c21.138286 0 38.619429 16.822857 40.009143 38.473143a40.813714 40.813714 0 0 1-34.962286 43.373714l-5.12 0.365715h-137.435429a52.004571 52.004571 0 0 0-51.2 47.030857l-0.365714 5.778285v446.025143a40.667429 40.667429 0 0 1-37.522286 40.96 40.374857 40.374857 0 0 1-42.349714-35.766857l-0.292571-5.12v-446.171428c0-71.387429 54.345143-130.486857 123.977142-134.729143l7.753143-0.219429h137.508572z" p-id="4870"></path><path d="M822.930286 49.225143a39.424 39.424 0 0 1 52.516571-4.827429l4.169143 3.657143L974.994286 141.897143c14.921143 14.628571 16.530286 38.4 3.803428 55.003428l-3.803428 4.242286-95.451429 93.915429a39.424 39.424 0 0 1-54.637714 0.731428 41.837714 41.837714 0 0 1-4.534857-55.881143l3.657143-4.096 65.316571-64.365714-65.316571-64.219428a41.837714 41.837714 0 0 1-4.681143-53.833143l3.510857-4.242286z" p-id="4871"></path><path d="M580.754286 60.050286c21.138286 0 38.619429 16.822857 40.009143 38.546285a40.813714 40.813714 0 0 1-34.962286 43.300572l-5.12 0.365714H168.374857a52.004571 52.004571 0 0 0-51.2 47.030857l-0.365714 5.778286v657.334857c0 27.282286 20.114286 49.664 45.933714 52.516572l5.632 0.365714h641.536a52.004571 52.004571 0 0 0 51.2-47.104l0.365714-5.778286V429.860571c0-21.723429 16.457143-39.643429 37.595429-40.96a40.374857 40.374857 0 0 1 42.276571 35.766858l0.292572 5.12v422.619428c0 71.533714-54.345143 130.56-123.977143 134.802286l-7.753143 0.219428h-641.462857c-69.778286 0-127.488-55.734857-131.584-127.049142L36.571429 852.406857V195.072C36.571429 123.611429 90.916571 64.512 160.548571 60.269714l7.753143-0.219428H580.754286z" p-id="4872"></path></svg>