<?xml version="1.0" standalone="no"?><!DOCTYPE svg PUBLIC "-//W3C//DTD SVG 1.1//EN" "http://www.w3.org/Graphics/SVG/1.1/DTD/svg11.dtd"><svg t="1758329889928" class="icon" viewBox="0 0 1024 1024" version="1.1" xmlns="http://www.w3.org/2000/svg" p-id="4654" xmlns:xlink="http://www.w3.org/1999/xlink" width="64" height="64"><path d="M956.3 635.7l-65.7-281.9c-17.6-74.1-77.1-114.6-123.7-114.6h-75.6c-14.5 0-26.7 12.2-26.7 26.7v282.6c0 14.5 12.2 26.7 26.7 26.7h106.2c14.5 0 26.7-12.2 26.7-26.7s-12.2-26.7-26.7-26.7h-78.7V292.7h48.9c16.8 0 58.1 18.3 71.8 73.3l64.9 281.1c6.9 35.9 1.5 56.5-16.8 63.4-13.7 4.6-21.4 19.9-16.8 33.6 3.8 11.5 14.5 18.3 25.2 18.3 3.1 0 6.1-0.8 8.4-1.5 22.1-8.3 70.2-35.1 51.9-125.2zM146.6 230.1h446.9c14.5 0 26.7-12.2 26.7-26.7s-12.2-26.7-26.7-26.7H146.6c-48.1 0-83.3 31.3-83.3 75.6v430c0 29 15.3 55.8 40.5 71 4.6 2.3 9.2 3.8 13.7 3.8 9.2 0 17.6-4.6 22.9-13 7.6-13 3.8-29-9.2-36.7-9.2-5.3-14.5-15.3-14.5-25.2V251.5c0.1-19.9 23-21.4 29.9-21.4z" p-id="4655"></path><path d="M722.5 616.6c-58.1 0-106.9 41.2-118.4 97H405.5c-11.5-55-60.3-97-118.4-97-66.5 0-120.7 54.2-120.7 120.7S220.7 858 287.1 858c56.5 0 103.9-39 116.9-91.7h201.7C618.7 819 666 858 722.5 858c66.5 0 120.7-54.2 120.7-120.7S789 616.6 722.5 616.6zM354.4 744.9c-3.8 33.6-32.1 59.6-67.2 59.6-37.4 0-67.2-30.6-67.2-67.2 0-36.7 30.6-67.2 67.2-67.2 35.9 0 65.7 28.3 67.2 64.2-0.8 2.3-0.8 3.8-0.8 6.1 0 1.5 0 3 0.8 4.5z m368.1 59.6c-37.4 0-67.2-30.6-67.2-67.2 0-36.7 30.6-67.2 67.2-67.2s67.2 30.6 67.2 67.2c0.1 36.7-29.7 67.2-67.2 67.2z m0-187.9zM558.829 519.795a29 29 0 1 0 56.953-10.967 29 29 0 1 0-56.953 10.967zM560.527 423.797a29 29 0 1 0 53.585-22.196 29 29 0 1 0-53.585 22.196zM560.522 322.198a29 29 0 1 0 53.585-22.196 29 29 0 1 0-53.585 22.196z" p-id="4656"></path></svg>