<?xml version="1.0" standalone="no"?><!DOCTYPE svg PUBLIC "-//W3C//DTD SVG 1.1//EN" "http://www.w3.org/Graphics/SVG/1.1/DTD/svg11.dtd"><svg t="1774489562941" class="icon" viewBox="0 0 1093 1024" version="1.1" xmlns="http://www.w3.org/2000/svg" p-id="919" xmlns:xlink="http://www.w3.org/1999/xlink" width="213.4765625" height="200"><path d="M546.323797 0c29.696 0 56.7296 11.605333 76.5952 30.583467l460.117334 457.454933a34.338133 34.338133 0 1 1-48.5376 48.674133l-49.288534-48.9472v356.7616A180.360533 180.360533 0 0 1 804.986197 1024H290.323797a180.360533 180.360533 0 0 1-180.155733-179.541333V487.424L62.313131 535.210667a34.474667 34.474667 0 1 1-50.9952-45.8752l-0.2048-0.2048L465.086464 35.771733C485.156864 13.789867 514.033664 0 546.323797 0z m0.682667 67.857067c-8.533333 0.273067-18.432 1.365333-31.197867 14.336l-333.141333 332.731733c-1.4336 10.513067-2.321067 21.777067-2.321067 33.792v364.066133c0 98.7136 49.288533 147.797333 148.343467 147.797334h440.661333c98.986667 0 148.343467-49.083733 148.343467-147.797334h-0.136533V448.7168c0-10.513067-0.546133-20.2752-1.706667-29.627733L576.156331 82.193067c-12.629333-12.970667-21.162667-14.336-29.149867-14.336z m2.8672 323.584c20.138667 0 36.590933 16.384 36.590933 36.4544v119.330133h119.739734c20.138667 0 36.522667 16.384 36.522666 36.386133v4.437334c0 20.0704-16.384 36.4544-36.522666 36.4544H586.464597v119.330133c0 20.0704-16.452267 36.386133-36.590933 36.386133h-4.437333a36.590933 36.590933 0 0 1-36.590934-36.386133V624.503467H389.105664a36.590933 36.590933 0 0 1-36.590933-36.4544V583.68c0-20.0704 16.452267-36.386133 36.590933-36.386133H508.777131V427.895467c0-20.0704 16.384-36.4544 36.590933-36.4544z" fill="#909399" p-id="920"></path></svg>