<?xml version="1.0" standalone="no"?><!DOCTYPE svg PUBLIC "-//W3C//DTD SVG 1.1//EN" "http://www.w3.org/Graphics/SVG/1.1/DTD/svg11.dtd"><svg t="1777855970174" class="icon" viewBox="0 0 1024 1024" version="1.1" xmlns="http://www.w3.org/2000/svg" p-id="5043" xmlns:xlink="http://www.w3.org/1999/xlink" width="200" height="200"><path d="M896 469.333333h-128v42.666667h128v-42.666667z m-256-298.666666H128v597.333333h85.333333v-4.266667c12.8-42.666667 51.2-76.8 98.133334-81.066666h8.533333c51.2 0 89.6 34.133333 102.4 81.066666v4.266667H597.333333v-4.266667c4.266667-25.6 21.333333-42.666667 38.4-59.733333L640 170.666667z m149.333333 170.666666H682.666667v341.333334H708.266667c51.2 0 89.6 34.133333 102.4 81.066666v4.266667h85.333333v-213.333333h-128c-25.6 0-42.666667-17.066667-42.666667-42.666667v-42.666667c0-25.6 17.066667-42.666667 42.666667-42.666666h128c-12.8-46.933333-55.466667-85.333333-106.666667-85.333334z m-85.333333 384c-34.133333 0-64 29.866667-64 64s29.866667 64 64 64 64-29.866667 64-64-29.866667-64-64-64z m-384 0c-34.133333 0-64 29.866667-64 64S285.866667 853.333333 320 853.333333 384 823.466667 384 789.333333 354.133333 725.333333 320 725.333333zM640 128c25.6 0 42.666667 17.066667 42.666667 42.666667v128h106.666666c81.066667 0 149.333333 68.266667 149.333334 149.333333V768c0 25.6-17.066667 42.666667-42.666667 42.666667h-89.6v4.266666c-12.8 42.666667-51.2 76.8-98.133333 81.066667h-8.533334c-51.2 0-89.6-34.133333-102.4-81.066667V810.666667H422.4v4.266666c-12.8 42.666667-51.2 76.8-98.133333 81.066667h-8.533334c-51.2 0-89.6-34.133333-102.4-81.066667V810.666667H128c-25.6 0-42.666667-17.066667-42.666667-42.666667V170.666667c0-25.6 17.066667-42.666667 42.666667-42.666667h512z" p-id="5044"></path></svg>