<?xml version="1.0" standalone="no"?><!DOCTYPE svg PUBLIC "-//W3C//DTD SVG 1.1//EN" "http://www.w3.org/Graphics/SVG/1.1/DTD/svg11.dtd"><svg t="1752030580709" class="icon" viewBox="0 0 1024 1024" version="1.1" xmlns="http://www.w3.org/2000/svg" p-id="5579" xmlns:xlink="http://www.w3.org/1999/xlink" width="200" height="200"><path d="M477.67481 180.545861a138.404176 138.404176 0 0 1 138.404176 138.404176v262.490679h235.048471a90.296793 90.296793 0 0 1 90.296794 90.296793v352.16704H311.780701l-178.780015-153.246831a145.515287 145.515287 0 0 1-20.426547-199.540641l5.583892-6.729307a145.849366 145.849366 0 0 1 200.447428-18.374347l6.442953 5.440716 14.604026 12.933631V318.711409a138.404176 138.404176 0 0 1 138.022372-138.165548z m0 90.296794a48.011931 48.011931 0 0 0-47.964206 48.011931v546.696495l-164.844146-146.56525-4.295302-3.436241a55.552573 55.552573 0 0 0-74.451902 8.399702l-3.483967 4.343027a55.218494 55.218494 0 0 0 9.06786 73.92692l135.254288 115.973155 110.961968 104.996271h413.208054v-351.355705H525.829918v-353.169276a48.011931 48.011931 0 0 0-48.011931-47.964206zM472.902252 0a300.957494 300.957494 0 0 1 211.233408 515.436242V301.100671H683.562953a210.660701 210.660701 0 1 0-421.178225 9.020134v206.126771A300.957494 300.957494 0 0 1 472.806801 0.190902z" fill="#363636" p-id="5580"></path></svg>