<?xml version="1.0" standalone="no"?><!DOCTYPE svg PUBLIC "-//W3C//DTD SVG 1.1//EN" "http://www.w3.org/Graphics/SVG/1.1/DTD/svg11.dtd"><svg t="1772592966178" class="icon" viewBox="0 0 1024 1024" version="1.1" xmlns="http://www.w3.org/2000/svg" p-id="1682" xmlns:xlink="http://www.w3.org/1999/xlink" width="200" height="200"><path d="M560.45568 849.2032c0-3.31264 1.2032-6.3232 3.13856-8.71424a13.81376 13.81376 0 0 1-3.13856-8.71424v-69.7344a13.952 13.952 0 0 1 13.952-13.94688h256.90112a69.41696 69.41696 0 0 0-3.98336-47.75936L591.2576 192.05632a69.45792 69.45792 0 0 0-21.72416-26.66496 65.46944 65.46944 0 0 0-18.85696-10.752L224.6912 35.4304c-34.18112-12.50304-72.02816 5.07392-84.52608 39.25504L20.95104 400.67072a65.536 65.536 0 0 0-1.83296 39.3216 69.9904 69.9904 0 0 0 5.02272 15.45216l236.07296 508.27776c16.22528 34.93376 57.69216 50.09408 92.6208 33.8688l207.616-96.42496V849.2032zM202.4192 101.38112a41.1904 41.1904 0 1 1 34.69824 74.70592 41.1904 41.1904 0 0 1-34.69824-74.70592zM445.696 718.9248l-100.41856 46.6432-17.69472-38.09792 100.41344-46.63808-15.54944-33.47968-100.41344 46.63808-17.69984-38.10816 82.90816-38.50752-209.73568-134.84032 89.08288-41.37984 89.91232 70.93248c37.22752 30.2848 50.14016 40.56576 76.95872 61.91104l2.57024-1.19296c2.0224-34.7392 1.77664-52.7872 2.34496-98.74432l3.29216-114.21696 87.54688-40.66304-32.7936 247.49056 83.42016-38.74304 17.69472 38.10816-99.90144 46.39744 15.54944 33.47968 99.90144-46.40256 17.69472 38.09792-99.90656 46.40256 36.84352 79.29856-75.19232 34.92352-36.82816-79.3088z" fill="" p-id="1683"></path><path d="M987.05408 775.53152h0.0768l-1.97632-1.57184c-0.4352-0.33792-0.82944-0.71168-1.28512-1.01888l-123.7504-97.9968v94.51008h-255.05792a20.9152 20.9152 0 0 0-20.92032 20.92032v18.59072a20.92032 20.92032 0 0 0 20.92032 20.92544h367.2576a20.92544 20.92544 0 0 0 20.92032-20.92544v-18.59072c0-5.80608-2.37056-11.0592-6.18496-14.84288zM590.32064 910.61248h-0.07168l1.97632 1.57184c0.4352 0.33792 0.82432 0.7168 1.28512 1.01888l123.7504 97.9968v-94.50496h255.05792a20.92032 20.92032 0 0 0 20.92032-20.92544v-18.59072a20.92032 20.92032 0 0 0-20.92032-20.92032h-367.2576a20.92544 20.92544 0 0 0-20.92032 20.92032v18.59072c0 5.80608 2.37056 11.05408 6.17984 14.84288z" fill="" p-id="1684"></path></svg>