<?xml version="1.0" standalone="no"?><!DOCTYPE svg PUBLIC "-//W3C//DTD SVG 1.1//EN" "http://www.w3.org/Graphics/SVG/1.1/DTD/svg11.dtd"><svg t="1777638589088" class="icon" viewBox="0 0 1024 1024" version="1.1" xmlns="http://www.w3.org/2000/svg" p-id="5089" xmlns:xlink="http://www.w3.org/1999/xlink" width="200" height="200"><path d="M721.204119 284.331793H240.695753c-11.02277 0-19.95794-8.93517-19.957941-19.95794s8.93517-19.95794 19.957941-19.95794h480.508366c11.02277 0 19.95794 8.93517 19.95794 19.95794s-8.93517 19.95794-19.95794 19.95794zM549.597766 493.248517H240.695753c-11.02277 0-19.95794-8.93517-19.957941-19.95794s8.93517-19.95794 19.957941-19.95794h308.903011c11.02277 0 19.95794 8.93517 19.95794 19.95794s-8.936168 19.95794-19.958938 19.95794zM389.785557 702.167237H240.695753c-11.02277 0-19.95794-8.93517-19.957941-19.95794s8.93517-19.95794 19.957941-19.95794h149.090802c11.02277 0 19.95794 8.93517 19.95794 19.95794s-8.936168 19.95794-19.958938 19.95794z" p-id="5090"></path><path d="M500.457325 1014.567877H87.14435c-16.72176 0-30.325092-13.60433-30.325092-30.32609V43.961355c0-16.72176 13.603332-30.325092 30.325092-30.325092h786.53444c16.720762 0 30.325092 13.603332 30.325092 30.325092v450.244146c0 11.02277-8.936168 19.95794-19.95794 19.95794-11.02277 0-19.95794-8.93517-19.95794-19.95794V53.552143H96.73414v921.099854h403.722187c11.021772 0 19.95794 8.93517 19.957941 19.95794s-8.93517 19.95794-19.956943 19.95794z" p-id="5091"></path><path d="M721.205117 1011.673976c-65.799333 0-127.660964-25.623999-174.188911-72.150947-46.526948-46.526948-72.150948-108.38858-72.150947-174.187913s25.623999-127.660964 72.150947-174.187913S655.405784 518.996256 721.205117 518.996256c65.799333 0 127.659967 25.623999 174.186914 72.150947s72.150948 108.38858 72.150948 174.187913-25.623999 127.660964-72.150948 174.187913-108.387582 72.150948-174.186914 72.150947z m0-452.76184c-113.823127 0-206.423978 92.600851-206.423978 206.421982 0 113.822129 92.600851 206.42298 206.423978 206.42298 113.822129 0 206.421982-92.600851 206.421981-206.42298 0-113.821131-92.599853-206.421982-206.421981-206.421982z" p-id="5092"></path><path d="M800.243549 751.1071H642.164688c-11.02277 0-19.95794-8.93517-19.95794-19.95794s8.93517-19.95794 19.95794-19.95794h158.077863c11.02277 0 19.95794 8.93517 19.957941 19.95794s-8.93517 19.95794-19.956943 19.95794z" p-id="5093"></path><path d="M721.205117 898.726005c-11.02277 0-19.95794-8.93517-19.957941-19.95794V718.934901c0-11.02277 8.93517-19.95794 19.957941-19.95794s19.95794 8.93517 19.95794 19.95794v159.833164c0 11.02277-8.93517 19.95794-19.95794 19.95794z" p-id="5094"></path><path d="M800.066921 808.092009H642.342314c-11.02277 0-19.95794-8.93517-19.95794-19.95794s8.93517-19.95794 19.95794-19.95794h157.724607c11.02277 0 19.95794 8.93517 19.957941 19.95794s-8.93517 19.95794-19.957941 19.95794zM725.154793 740.115265a19.886092 19.886092 0 0 1-13.157272-4.957552l-56.544836-49.623423c-8.284541-7.270678-9.10581-19.880104-1.836131-28.165643 7.270678-8.284541 19.880104-9.106808 28.165643-1.836131l56.544836 49.623423c8.284541 7.270678 9.10581 19.880104 1.836131 28.165643a19.911039 19.911039 0 0 1-15.008371 6.793683z" p-id="5095"></path><path d="M721.664149 740.115265a19.908045 19.908045 0 0 1-15.008371-6.794681c-7.270678-8.284541-6.44841-20.893968 1.836131-28.164645l56.545834-49.623423c8.285539-7.26968 20.893968-6.44841 28.164645 1.836131 7.270678 8.284541 6.44841 20.894965-1.836131 28.164645l-56.545834 49.623423a19.878108 19.878108 0 0 1-13.156274 4.95855z" p-id="5096"></path></svg>