<?xml version="1.0" standalone="no"?><!DOCTYPE svg PUBLIC "-//W3C//DTD SVG 1.1//EN" "http://www.w3.org/Graphics/SVG/1.1/DTD/svg11.dtd"><svg t="1752032426570" class="icon" viewBox="0 0 1024 1024" version="1.1" xmlns="http://www.w3.org/2000/svg" p-id="12636" xmlns:xlink="http://www.w3.org/1999/xlink" width="200" height="200"><path d="M258.518033 161.154098c8.393443-5.87541 17.62623-12.590164 26.859016-18.465573 0.839344 93.167213 0 185.495082 0 278.662295-41.127869-30.216393-82.255738-60.432787-122.544262-90.649181-23.501639-17.62623-47.003279-34.413115-69.665574-52.039344 54.557377-38.609836 109.954098-78.059016 165.35082-117.508197z m-55.396722 68.82623c0 6.714754-1.678689 12.590164-2.518032 19.304918-1.678689 8.393443 6.714754 17.62623 0.839344 25.180328-5.87541 10.072131-11.75082 20.144262-16.786885 30.216393-2.518033 4.196721-3.357377 10.072131 0 13.429508 3.357377 5.036066 9.232787 2.518033 14.268852 3.357377 3.357377 1.678689 6.714754 4.196721 10.911476 5.036066s7.554098-2.518033 11.750819-2.518033c4.196721 0.839344 8.393443 1.678689 13.429508 0.839345 3.357377-0.839344 5.87541-2.518033 9.232787-4.196722 4.196721-0.839344 8.393443 0.839344 12.590164-0.839344 4.196721-3.357377 5.036066-10.072131 2.518033-15.108197-5.87541-10.072131-12.590164-20.144262-18.465574-30.216393-5.87541-9.232787 5.036066-20.144262 0.839345-29.377049-1.678689-5.036066-2.518033-10.072131-2.518033-15.108197H235.016393c-2.518033 5.87541-7.554098 10.911475-14.268852 12.590164-6.714754-1.678689-10.911475-6.714754-13.429508-12.590164h-4.196722zM299.645902 142.688525c25.180328 16.786885 49.521311 35.252459 74.701639 52.039344l123.383607 88.131147c-4.196721 3.357377-9.232787 6.714754-13.429509 10.072132-61.272131 42.806557-123.383607 85.613115-184.655737 128.419672V142.688525zM318.95082 249.285246c3.357377 5.87541 7.554098 11.75082 11.750819 16.786885 1.678689-1.678689 4.196721-3.357377 5.87541-4.196721v57.914754c21.822951 2.518033 44.485246 0.839344 67.147541 0.839344 1.678689-19.304918 0.839344-39.44918 0.839344-58.754098 1.678689 1.678689 4.196721 3.357377 5.87541 4.196721 4.196721-5.87541 10.072131-10.911475 10.911476-18.465574-11.75082-5.036066-22.662295-12.590164-35.252459-14.268852-2.518033 6.714754-8.393443 12.590164-16.786886 11.75082-7.554098 0-11.75082-6.714754-15.108196-11.75082-12.590164 2.518033-24.340984 9.232787-35.252459 15.947541z m196.406557 34.413115c67.147541-47.003279 133.455738-94.845902 201.442623-141.009836v277.82295c-67.986885-44.485246-134.295082-90.64918-201.442623-136.813114z m108.27541-53.718033c-1.678689 11.75082-5.036066 24.340984-0.839344 35.252459 4.196721 12.590164 16.786885 20.983607 25.180327 30.216393 5.036066 4.196721 2.518033 10.911475 3.357378 16.786886-6.714754 3.357377-13.429508 5.87541-19.304918 9.232786 14.268852 0.839344 29.377049 0.839344 43.645901 0-6.714754-3.357377-13.429508-6.714754-20.144262-9.232786 0.839344-5.87541-1.678689-13.429508 3.357377-18.465574 9.232787-8.393443 20.983607-15.947541 25.180328-28.537705 3.357377-11.75082 0-24.340984-1.678689-36.091803-20.144262 0.839344-39.44918 0.839344-58.754098 0.839344zM728.55082 142.688525c17.62623 10.911475 34.413115 23.501639 51.2 36.091803 40.288525 28.537705 80.577049 57.07541 121.704918 85.613115 7.554098 5.036066 15.108197 10.072131 21.822951 15.947541-64.629508 47.003279-129.259016 94.006557-194.727869 141.009836V142.688525z m35.252459 76.380327c2.518033 8.393443 7.554098 16.786885 15.947541 19.304918 4.196721 0.839344 9.232787 0 14.268852 0-1.678689-5.87541-3.357377-11.75082-7.554098-15.94754-5.87541-5.036066-15.108197-3.357377-22.662295-3.357378z m39.44918 7.554099c-3.357377 3.357377-5.036066 8.393443-6.714754 12.590164 5.036066 0 11.75082 0.839344 15.947541-2.518033 3.357377-3.357377 5.036066-7.554098 6.714754-11.75082-5.036066-0.839344-10.911475-1.678689-15.947541 1.678689z m-13.429508 16.786885c-21.822951 2.518033-39.44918 26.019672-34.413115 47.842623 2.518033 20.983607 22.662295 36.931148 43.645902 35.252459 10.911475-1.678689 21.822951-5.87541 29.377049-15.108197 10.072131-11.75082 13.429508-30.216393 5.87541-44.485246-7.554098-15.947541-26.859016-26.859016-44.485246-23.501639z m-55.396721 191.370492c62.95082-45.32459 125.901639-90.64918 188.852459-136.813115v276.983607c-62.95082-45.32459-125.062295-91.488525-188.013115-136.813115-0.839344-0.839344-1.678689-2.518033-0.839344-3.357377z m99.881967-27.698361c-15.947541 2.518033-31.055738 11.75082-37.770492 26.859017-1.678689 9.232787 7.554098 15.947541 13.429508 21.82295 7.554098 6.714754 17.62623 9.232787 27.698361 12.590164 7.554098 4.196721 12.590164 10.911475 20.983606 13.429509 1.678689-6.714754 1.678689-13.429508 2.518033-20.144263 9.232787-4.196721 15.947541-10.911475 23.501639-16.786885 7.554098 1.678689 10.911475 10.072131 18.465574 11.75082 1.678689-0.839344 7.554098 0.839344 7.554099-2.518033 0.839344-5.87541-2.518033-10.911475-4.196722-16.786885 0.839344-5.87541 5.87541-10.911475 4.196722-16.786886-0.839344-4.196721-5.87541-6.714754-10.072132-5.036065-5.036066 2.518033-8.393443 8.393443-13.429508 12.590164-10.072131-4.196721-16.786885-13.429508-26.859016-17.62623 0-5.87541-0.839344-12.590164-0.839344-18.465574-10.072131 1.678689-15.947541 10.911475-25.180328 15.108197zM92.327869 298.806557c62.95082 45.32459 125.062295 91.488525 188.013115 136.813115 1.678689 0.839344 0.839344 3.357377-0.839345 3.357377-62.111475 45.32459-124.222951 91.488525-187.17377 135.973771V298.806557z m57.07541 96.524591c-3.357377 3.357377-4.196721 8.393443-5.87541 13.429508-3.357377 1.678689-7.554098 3.357377-10.911476 5.87541-6.714754 4.196721-9.232787 13.429508-10.911475 21.82295s-1.678689 16.786885-0.839344 25.180328c0.839344 6.714754 7.554098 12.590164 14.268852 12.590164h55.396722c5.036066 0.839344 9.232787-1.678689 13.429508-5.036065 5.036066-5.87541 2.518033-14.268852 2.518033-20.983607-1.678689-10.072131-2.518033-20.983607-7.554099-30.216393-2.518033-6.714754-10.072131-6.714754-14.268852-11.75082-3.357377-7.554098-7.554098-15.108197-15.947541-17.62623-6.714754-0.839344-14.268852 0.839344-19.304918 6.714755zM433.101639 377.704918c8.393443-12.590164 12.590164-27.698361 20.144263-40.288525 5.036066 13.429508 10.072131 26.859016 15.108196 39.449181 5.036066 0.839344 10.911475 1.678689 15.947541 2.518033v13.429508c7.554098-1.678689 15.947541-2.518033 23.50164-4.196722l-17.62623-50.360655c15.947541 5.87541 31.895082 13.429508 47.003279 20.144262-4.196721 10.911475-7.554098 21.822951-10.911476 33.57377 6.714754-1.678689 13.429508-2.518033 20.144263-5.036065 2.518033-0.839344 3.357377-3.357377 4.196721-5.036066 5.87541-15.108197 11.75082-29.377049 18.465574-44.485246 10.911475 8.393443 22.662295 16.786885 32.734426 25.180328-1.678689 2.518033-4.196721 4.196721-6.714754 6.714754-8.393443 6.714754-16.786885 12.590164-24.340984 19.304918h31.895082c3.357377 8.393443 5.87541 16.786885 8.393443 25.180328h-20.983607c-2.518033 10.072131-5.036066 20.144262-6.714754 31.055738 8.393443 2.518033 17.62623 3.357377 26.019672 5.87541 3.357377 7.554098 5.87541 15.947541 8.393443 24.340983-10.911475 1.678689-20.983607 2.518033-31.895082 4.196722-2.518033 16.786885-4.196721 33.57377-7.554098 50.360656-5.036066 5.036066-11.75082 8.393443-17.62623 12.590163-3.357377-21.822951-7.554098-43.645902-10.911475-65.468852-6.714754-0.839344-14.268852-0.839344-20.983607-1.678689-4.196721 18.465574-8.393443 36.091803-12.590164 54.557378-4.196721 5.87541-12.590164 8.393443-19.304918 12.590163-1.678689-21.822951-0.839344-42.806557-2.518033-63.790163-5.036066 0-10.072131-0.839344-15.108196-1.678689-2.518033-6.714754-4.196721-13.429508-6.714754-19.304918-9.232787 10.072131-8.393443 23.501639-10.072131 36.091803-2.518033 16.786885-4.196721 33.57377-6.714755 50.360656-13.429508-9.232787-26.019672-18.465574-38.609836-28.537705l25.180328-7.554098c-1.678689-11.75082-2.518033-23.501639-4.196721-36.091804-5.036066 3.357377-9.232787 7.554098-14.268853 10.911476-4.196721-13.429508-8.393443-26.859016-11.750819-39.449181 9.232787-0.839344 18.465574-2.518033 27.69836-4.196721-0.839344-9.232787-1.678689-17.62623-3.357377-26.859016l-7.554098-2.518033c-5.87541-7.554098-10.072131-15.947541-14.268852-24.340984 5.87541-3.357377 12.590164-4.196721 18.465573-7.554098z m30.216394 60.432787c7.554098-0.839344 15.947541-0.839344 23.501639-0.839344-1.678689 5.036066-4.196721 10.072131-6.714754 15.108196 7.554098-2.518033 15.108197-5.87541 22.662295-8.393442-1.678689-8.393443-3.357377-15.947541-5.036065-24.340984-5.036066-1.678689-10.072131-2.518033-15.108197-4.196721-4.196721-4.196721-5.87541-10.072131-8.393443-15.108197-9.232787 10.072131-8.393443 25.180328-10.911475 37.770492z m71.344262-18.465574c-1.678689 9.232787-3.357377 19.304918-4.196721 28.537705 8.393443-1.678689 17.62623-3.357377 26.859016-5.036066l-2.518033-27.69836c-6.714754 0.839344-13.429508 2.518033-20.144262 4.196721z m-372.668852-23.501639c8.393443-2.518033 14.268852 5.036066 17.626229 11.750819H151.081967c1.678689-5.036066 5.036066-10.911475 10.911476-11.750819z m364.275409 194.727869c62.95082-47.842623 126.740984-94.006557 189.691804-141.009836 0.839344 41.127869-0.839344 81.416393 0.839344 122.544262v156.118033c-20.144262-13.429508-39.44918-28.537705-59.593443-42.806558C612.721311 654.688525 569.914754 621.954098 526.268852 590.898361z m113.311476-55.396722c-1.678689 5.87541-3.357377 11.75082-5.036066 16.786886 4.196721-1.678689 9.232787-3.357377 13.429508-4.196722 8.393443-1.678689 16.786885 0.839344 24.340984 4.196722-1.678689-5.87541-3.357377-10.911475-5.036065-16.786886h-27.698361z m5.87541 20.983607c-10.072131 2.518033-17.62623 10.911475-21.822951 20.144262-4.196721 13.429508 1.678689 29.377049 14.268852 36.091803 10.911475 6.714754 26.859016 5.036066 36.091804-4.196721 15.947541-12.590164 12.590164-41.967213-5.87541-50.360656-7.554098-3.357377-15.947541-2.518033-22.662295-1.678688z m-10.911476 65.468852c1.678689 5.87541 3.357377 11.75082 5.87541 16.786886 9.232787 0 18.465574 0 27.698361-0.839345 1.678689-5.87541 2.518033-10.911475 4.196721-16.786885-11.75082 7.554098-26.019672 5.87541-37.770492 0.839344z m94.006558-171.226229c64.629508 45.32459 130.098361 91.488525 194.727869 137.652459-34.413115 26.019672-68.82623 49.521311-103.239345 74.701639-30.216393 21.822951-60.432787 44.485246-90.64918 65.468853-0.839344-93.167213-0.839344-185.495082-0.839344-277.822951z m62.950819 77.219672c0 6.714754 0 12.590164 0.839345 19.304918h5.875409c1.678689-3.357377 0.839344-8.393443 0.839345-12.590164 4.196721-6.714754-5.036066-5.036066-7.554099-6.714754z m-26.859016 1.678689c-0.839344 5.036066-0.839344 10.911475 0 15.94754 2.518033 0.839344 4.196721 1.678689 6.714754 2.518033-1.678689-5.87541 4.196721-18.465574-6.714754-18.465573z m55.396721 0.839344c-1.678689 5.036066-0.839344 10.072131 0 15.108196-0.839344 2.518033 6.714754 3.357377 6.714754 0.839345 1.678689-4.196721 0-9.232787 0-14.268853-0.839344-2.518033-3.357377-2.518033-6.714754-1.678688z m-62.111475 26.019672c-0.839344 23.501639-0.839344 47.003279 0 70.504918 0 3.357377 3.357377 4.196721 6.714754 4.196721h55.396721c4.196721-0.839344 10.072131 1.678689 13.429508-2.518033 2.518033-4.196721 1.678689-10.072131 2.518033-14.268852 4.196721-1.678689 8.393443-2.518033 12.590164-5.036066 7.554098-5.036066 8.393443-15.947541 5.036066-23.501639-4.196721-6.714754-11.75082-9.232787-18.465574-11.75082 0-5.87541-0.839344-11.75082-0.839344-16.786885-26.019672-0.839344-51.2-0.839344-76.380328-0.839344z m-664.760656 30.216393c63.790164-45.32459 127.580328-90.64918 192.209836-135.97377v277.822951c-38.609836-27.698361-77.219672-56.236066-114.990164-84.773771-26.019672-19.304918-52.039344-36.931148-77.219672-57.07541z m159.47541-47.003278c-5.87541 6.714754-10.911475 12.590164-15.108197 20.144262-7.554098 11.75082-10.072131 26.859016-18.465574 38.609836-15.108197 5.036066-34.413115 5.036066-45.32459 19.304918 13.429508 10.911475 31.895082 10.911475 47.842623 8.393443 9.232787-1.678689 12.590164-11.75082 13.429508-19.304918 1.678689-9.232787 4.196721-20.983607 12.590164-26.019672 3.357377-1.678689 5.036066 2.518033 5.036066 5.036065 0.839344 13.429508 0 27.698361 0 41.967213h5.87541c0-15.108197-2.518033-31.055738 4.196721-45.32459 2.518033-7.554098 7.554098-15.108197 5.036066-24.340984-1.678689-9.232787-8.393443-14.268852-15.108197-18.465573z m47.003279-88.131148c37.770492 26.859016 74.701639 54.557377 112.472131 82.255738 26.019672 18.465574 51.2 37.770492 76.380328 56.236065L299.645902 728.55082v-276.983607z m54.557377 92.327869c-4.196721 1.678689-5.87541 6.714754-9.232787 10.072131-6.714754 0.839344-12.590164 0.839344-19.304918 2.518033-3.357377 0.839344-3.357377 4.196721-3.357377 7.554098 0 18.465574-0.839344 36.931148 0.839344 55.396722 0.839344 5.036066 7.554098 5.036066 10.911475 4.196721 26.859016 0 53.718033 0.839344 80.57705-0.839344 4.196721 0 4.196721-5.87541 4.196721-8.393443 0.839344-18.465574 0-37.770492 0-56.236066-6.714754-4.196721-14.268852-4.196721-21.822951-4.196721-3.357377-3.357377-6.714754-8.393443-11.75082-10.072131-10.072131-1.678689-20.983607-1.678689-31.055737 0z m-47.842623 196.406557c64.629508-45.32459 129.259016-92.327869 194.727869-136.813114v147.72459c1.678689 43.645902 0.839344 87.291803 0.839344 130.937705-46.163934-32.734426-91.488525-66.308197-137.652459-99.042623-18.465574-15.108197-38.609836-28.537705-57.914754-42.806558z m124.222951-53.718032h9.232786c-1.678689-1.678689-2.518033-4.196721-4.196721-5.87541-2.518033 1.678689-4.196721 3.357377-5.036065 5.87541z m-35.252459 21.82295c-7.554098 7.554098-10.911475 18.465574-14.268853 28.537705 3.357377-0.839344 7.554098-1.678689 10.911475-2.518032 6.714754-0.839344 13.429508 3.357377 20.144263 0.839344 5.87541-1.678689 11.75082-2.518033 17.626229-0.839344-0.839344 12.590164-0.839344 26.019672-1.678688 38.609836-0.839344 4.196721-5.87541 4.196721-9.232787 5.875409-2.518033-5.036066-4.196721-10.911475-8.393443-15.108196-2.518033 1.678689-5.036066 3.357377-5.87541 5.87541-1.678689 8.393443 5.036066 17.62623 13.429509 19.304918 9.232787 3.357377 20.144262-3.357377 21.82295-12.590164 0.839344-14.268852 0-28.537705 0-41.967213 7.554098-2.518033 15.108197 0.839344 21.822951 2.518032 8.393443-1.678689 17.62623-2.518033 26.019672 0-2.518033-9.232787-4.196721-20.144262-10.911475-26.859016-4.196721-5.87541-10.911475-9.232787-15.947541-13.429508-20.983607-11.75082-50.360656-6.714754-65.468852 11.750819z m119.186885-105.757377c64.629508 45.32459 129.259016 91.488525 194.727869 136.813115C644.616393 787.304918 579.147541 834.308197 514.518033 881.311475c-0.839344-93.167213 0-185.495082 0-278.662295z m63.790164 78.898361c-2.518033 2.518033-3.357377 6.714754-7.554099 7.554098-8.393443 4.196721-14.268852 11.75082-21.82295 16.786886 2.518033 1.678689 5.87541 3.357377 10.072131 2.518032 17.62623 0 35.252459 0.839344 52.878688-0.839344-5.036066-5.87541-11.75082-10.072131-17.626229-15.108197-5.87541-3.357377-10.072131-9.232787-15.947541-10.911475z m-29.377049 36.931148v52.878688c-0.839344 2.518033 0.839344 7.554098 4.196721 7.554098 18.465574 0.839344 37.770492 0 56.236065 0 3.357377-6.714754 2.518033-15.108197 2.518033-22.662295 0-11.75082 0.839344-24.340984-0.839344-36.091803-0.839344-3.357377-5.87541-3.357377-8.393443-3.357377-18.465574 0-36.091803-0.839344-53.718032 1.678689z" fill="#D0604F" p-id="12637"></path></svg>