<?xml version="1.0" standalone="no"?><!DOCTYPE svg PUBLIC "-//W3C//DTD SVG 1.1//EN" "http://www.w3.org/Graphics/SVG/1.1/DTD/svg11.dtd"><svg t="1752030436927" class="icon" viewBox="0 0 1024 1024" version="1.1" xmlns="http://www.w3.org/2000/svg" p-id="4353" xmlns:xlink="http://www.w3.org/1999/xlink" width="200" height="200"><path d="M682.666667 463.238095a73.142857 73.142857 0 0 1 73.142857 73.142857v292.571429a73.142857 73.142857 0 0 1-73.142857 73.142857H341.333333a73.142857 73.142857 0 0 1-73.142857-73.142857V536.380952a73.142857 73.142857 0 0 1 73.142857-73.142857h341.333334z m0 73.142857H341.333333v292.571429h341.333334V536.380952z m0-414.47619a73.142857 73.142857 0 0 1 73.142857 73.142857v48.761905h97.523809a73.142857 73.142857 0 0 1 73.142857 73.142857v341.333333a73.142857 73.142857 0 0 1-73.142857 73.142857h-48.761904v-73.142857h48.761904V316.952381H170.666667v341.333333h48.761904v73.142857H170.666667a73.142857 73.142857 0 0 1-73.142857-73.142857V316.952381a73.142857 73.142857 0 0 1 73.142857-73.142857h97.523809V195.047619a73.142857 73.142857 0 0 1 73.142857-73.142857h341.333334z m-48.761905 512v73.142857H390.095238v-73.142857h243.809524zM256 365.714286a36.571429 36.571429 0 1 1 0 73.142857 36.571429 36.571429 0 0 1 0-73.142857zM682.666667 195.047619H341.333333v48.761905h341.333334V195.047619z" p-id="4354"></path></svg>