<?xml version="1.0" standalone="no"?><!DOCTYPE svg PUBLIC "-//W3C//DTD SVG 1.1//EN" "http://www.w3.org/Graphics/SVG/1.1/DTD/svg11.dtd"><svg t="1775886480171" class="icon" viewBox="0 0 1024 1024" version="1.1" xmlns="http://www.w3.org/2000/svg" p-id="9585" xmlns:xlink="http://www.w3.org/1999/xlink" width="200" height="200"><path d="M800 64H224a128 128 0 0 0-128 128v640a128 128 0 0 0 128 128h576a128 128 0 0 0 128-128V192a128 128 0 0 0-128-128zM224 128h576a64 64 0 0 1 64 64v640a64 64 0 0 1-64 64H224a64 64 0 0 1-64-64V192a64 64 0 0 1 64-64z" fill="#000000" p-id="9586"></path><path d="M693.504 515.904l1.856 3.264 78.08 156.224a64 64 0 0 1-51.264 92.32l-5.952 0.288h-131.04a32 32 0 0 1-3.744-63.776l3.744-0.224h131.04l-78.08-156.224a32 32 0 0 1 53.184-34.784l2.176 2.912z m-322.784-9.376a32 32 0 0 1 15.808 39.488l-1.472 3.456L307.776 704h133.856a32 32 0 0 1 3.712 63.776l-3.712 0.224H307.776a64 64 0 0 1-59.648-87.2l2.4-5.44 77.28-154.528a32 32 0 0 1 42.912-14.304z m169.92-268.224a64 64 0 0 1 25.728 23.456l2.88 5.184 57.92 115.84a32 32 0 0 1-55.36 31.872l-1.888-3.232L512 295.584l-60.512 120.992a32 32 0 0 1-58.72-25.184l1.472-3.424 60.512-121.024a64 64 0 0 1 85.856-28.64z" fill="#000000" p-id="9587"></path></svg>