<?xml version="1.0" standalone="no"?><!DOCTYPE svg PUBLIC "-//W3C//DTD SVG 1.1//EN" "http://www.w3.org/Graphics/SVG/1.1/DTD/svg11.dtd"><svg t="1775880289519" class="icon" viewBox="0 0 1024 1024" version="1.1" xmlns="http://www.w3.org/2000/svg" p-id="7704" xmlns:xlink="http://www.w3.org/1999/xlink" width="200" height="200"><path d="M285.76303955 544.67867255c25.13744054 40.21990457 67.87108813 62.84360061 113.11848024 62.84359915s87.98103968-22.62369604 113.11848021-62.84359915c25.13744054 40.21990457 67.87108813 62.84360061 113.11848021 62.84359915s87.98103968-22.62369604 113.11848024-62.84359915c25.13744054 40.21990457 67.87108813 62.84360061 113.11848022 62.84359915 75.41232014 0 138.25592077-65.35734363 138.25592078-143.28340829l2.513743-168.42084735c0-10.05497651-2.5137445-20.10995154-7.541232-30.16492807 0 0-113.11848021-193.55828789-113.11848023-196.07203238-10.05497651-20.10995154-22.62369604-37.70616007-70.38483116-37.70616006H227.94692794c-40.21990457 0-57.81611163 17.59620852-72.89857712 42.73364758l-110.60473575 188.53080038c-5.02748752 10.05497651-7.54123201 20.10995154-10.05497652 32.67867255v168.42084735c0 80.43980767 62.84360061 143.28340828 138.25592078 143.28340829 45.24739209 0 87.98103968-22.62369604 113.11848022-62.84359915z m-87.98103969-444.93268887c7.54123201-12.56871953 15.08246403-17.59620852 30.16492808-17.59620852h573.13363312c15.08246403 0 20.10995154 2.5137445 30.16492806 17.59620852 17.59620852 27.65118356 65.35734363 110.60473572 75.41232015 123.17345526H122.36967972c7.54123201-12.56871953 57.81611163-93.00852867 75.41232014-123.17345526z m-125.68720121 364.49287973v-165.90710432c0-12.56871953 10.05497651-22.62369604 22.62369604-22.62369604h829.53552163c12.56871953 0 22.62369604 10.05497651 22.62369604 22.62369604v165.90710432c0 52.7886241-40.21990457 95.5222717-90.49478417 95.52227318S763.37440099 514.5137445 763.37440099 464.23886341v-22.62369605c0-15.08246403-10.05497651-25.13744054-25.13744054-25.13743906-12.56871953 0-25.13744054 10.05497651-25.13744055 25.13743906v22.62369605c0 52.7886241-40.21990457 95.5222717-90.49478418 95.52227318s-90.49478418-42.73364759-90.49478418-95.52227318v-22.62369605c0-15.08246403-10.05497651-25.13744054-25.13743906-25.13743906s-25.13744054 10.05497651-25.13744054 25.13743906v22.62369605c0 52.7886241-40.21990457 95.5222717-90.49478416 95.52227318s-90.49478418-42.73364759-90.49478419-95.52227318v-22.62369605c0-15.08246403-10.05497651-25.13744054-25.13744054-25.13743906-12.56871953 0-25.13744054 10.05497651-25.13743907 25.13743906v22.62369605c0 52.7886241-40.21990457 95.5222717-90.49478419 95.52227318s-87.98103968-42.73364759-87.98104114-95.52227318zM632.65971222 944.36396934h-477.6113614c-12.56871953-2.5137445-22.62369604-12.56871953-22.62369608-25.13744054v-238.80567999c0-12.56871953-10.05497651-25.13744054-25.13743905-25.13744053s-25.13744054 10.05497651-25.13744053 25.13744053v238.80567999c0 40.21990457 32.67867255 72.89857565 72.89857566 72.89857565h477.6113614c12.56871953 0 25.13744054-12.56871953 25.13744056-25.13743906-2.5137445-10.05497651-15.08246403-22.62369604-25.13744056-22.62369605zM982.07012943 662.82464031c-10.05497651-10.05497651-25.13744054-10.05497651-35.19241707 0l-95.52227169 70.38483262-90.49478418-67.87108814c-10.05497651-10.05497651-25.13744054-10.05497651-35.19241558 0-10.05497651 10.05497651-10.05497651 25.13744054 0 35.19241557l93.00852721 65.35734366h-77.92606317c-12.56871953 0-25.13744054 12.56871953-25.13744054 25.13744052s12.56871953 25.13744054 25.13744054 25.13744055h85.46729519v32.67867107H738.23696045c-12.56871953 0-25.13744054 12.56871953-25.13744055 25.13744055s12.56871953 25.13744054 25.13744055 25.13744055h87.98103969v67.87108813c0 12.56871953 12.56871953 25.13744054 25.13744053 25.13743906s25.13744054-12.56871953 25.13744054-25.13743906v-67.87108813H964.47392089c12.56871953 0 25.13744054-12.56871953 25.13744056-25.13744055s-12.56871953-22.62369604-25.13744056-22.62369604h-87.98103968v-32.67867255H964.47392089c12.56871953 0 25.13744054-12.56871953 25.13744056-25.13743906s-12.56871953-25.13744054-25.13744056-25.13744057h-77.92606463l95.52227317-70.38483262c10.05497651-10.05497651 10.05497651-25.13744054 0-35.19241556z" p-id="7705"></path><path d="M632.65971222 748.29193695h-223.72321594l45.24739209-45.24739209c10.05497651-7.54123201 10.05497651-25.13744054 0-35.19241704-7.54123201-10.05497651-25.13744054-10.05497651-35.19241704 0l-87.98103969 87.98104115c-5.02748752 5.02748752-7.54123201 10.05497651-7.541232 17.59620705s2.5137445 12.56871953 7.541232 17.59620852l87.98103969 87.98103969c7.54123201 10.05497651 25.13744054 10.05497651 35.19241704 0 10.05497651-7.54123201 10.05497651-25.13744054 0-35.19241557l-45.24739209-45.24739208h223.72321594c12.56871953 0 25.13744054-12.56871953 25.13744056-25.13744056s-12.56871953-25.13744054-25.13744056-25.13743907z" p-id="7706"></path></svg>