<?xml version="1.0" standalone="no"?><!DOCTYPE svg PUBLIC "-//W3C//DTD SVG 1.1//EN" "http://www.w3.org/Graphics/SVG/1.1/DTD/svg11.dtd"><svg t="1777681488379" class="icon" viewBox="0 0 1024 1024" version="1.1" xmlns="http://www.w3.org/2000/svg" p-id="6814" xmlns:xlink="http://www.w3.org/1999/xlink" width="200" height="200"><path d="M152.4 314.3v426.4l339.9 159.5V473.8L152.4 314.3z m202.7 275l-110.7-52.6v-63.9l110.7 52.6v63.9zM846.4 279.7L514.3 123.8 182.1 279.7l332.2 155.9zM717 611.7l34.8-18.7v-51.7l-34.8 19z" p-id="6815"></path><path d="M531.7 473.8v426.4l339.9-159.5V314.3L531.7 473.8z m113.4 284.5l-26.9 13.8V644c-4.8 9.4-9.6 18.1-14.4 26.4-2.5-6.2-9.8-18.6-14.5-23.4 20.4-33.8 40.6-80.6 52.1-123.3l25.8-5.6c-6.1 21-13.8 43.4-22.1 65.3v174.9z m30-16c-5.1-3-15.7-7-21.7-7.9 16.3-20.5 32.8-47.7 42.4-71l26.4-5.1c-11.9 28.6-30.8 61.1-47.1 84z m113-57.5c-7.8-11.6-24.9-26.8-40.2-35.4l23.1-25.9c15.9 8.1 32.9 21.5 41.8 32.1l-24.7 29.2z m25.9-94.6l-156 82.6v-29.6l31.4-16.8v-51.1l-25.6 14v-29.1l25.6-14.1v-48l27.5-15.5v48.2l34.8-19.2v-48.8L780 447v49.1l32-17.7v30l-32 17.5v52l34-18.2v30.5z" p-id="6816"></path></svg>