<?xml version="1.0" standalone="no"?><!DOCTYPE svg PUBLIC "-//W3C//DTD SVG 1.1//EN" "http://www.w3.org/Graphics/SVG/1.1/DTD/svg11.dtd"><svg t="1777681509731" class="icon" viewBox="0 0 1024 1024" version="1.1" xmlns="http://www.w3.org/2000/svg" p-id="7845" xmlns:xlink="http://www.w3.org/1999/xlink" width="200" height="200"><path d="M1017.771 511.331c0 280.666-227.523 508.191-508.191 508.191s-508.19-227.525-508.19-508.191c0-280.665 227.523-508.19 508.191-508.19s508.19 227.523 508.19 508.19zM195.548 452.923h34.383v56.987l-38.839 6.686 4.457 46.162 34.383-8.596v56.35c-0.107 5.627-1.168 9.579-3.184 11.859-2.016 2.284-5.838 3.421-11.461 3.421-5.943 0-13.053-0.318-21.33-0.955 5.093 18.465 8.701 32.895 10.825 43.298 29.076 0 47.38-3.291 54.917-9.87 7.534-6.581 11.301-16.98 11.301-31.2v-82.774l31.836-7.323c-0.214-9.551 0.211-23.664 1.274-42.342-10.506 2.443-21.543 4.83-33.11 7.163v-48.868h31.518v-41.387h-31.518v-56.032h-41.068v56.032h-34.383v41.39zM352.818 481.894v-76.726h91.371c0 10.401-1.699 17.191-5.093 20.375-3.397 3.184-9.129 4.777-17.191 4.777-11.779 0-26.849-0.637-45.207-1.91 4.032 15.070 6.897 28.123 8.596 39.158 21.117 0.214 38.786 0.239 53.007 0.080 14.22-0.159 25.521-4.059 33.906-11.7 8.382-7.642 13.157-18.889 14.326-33.746 1.166-14.855 1.91-33.056 2.229-54.599h-177.965v301.489h42.023v-25.787c7.004 10.188 12.417 18.994 16.236 26.423 20.057-11.994 37.937-25.31 53.644-39.954 17.829 16.023 37.408 29.341 58.738 39.954 9.973-16.769 18.887-31.094 26.741-42.978-21.33-7.004-40.538-16.181-57.622-27.538 18.784-24.195 32.895-51.415 42.342-81.661v-35.657h-140.078zM355.364 541.746c11.354 21.33 24.087 40.538 38.205 57.622-11.994 9.129-25.577 17.247-40.751 24.355v-104.263h96.464c-6.367 20.375-16.131 38.522-29.289 54.441-14.751-14.964-27.061-32.366-36.93-52.211l-27.698 20.057zM516.455 498.449c7.642 23.984 12.946 42.557 15.919 55.713 8.489-11.247 16.555-22.816 24.195-34.702v147.719h43.616v-227.31c9.973-22.286 18.784-45.312 26.423-69.085l-43.616-13.053c-19.101 58.793-41.282 105.696-66.538 140.716zM742.492 665.588h46.162v-173.189c7.427 6.793 15.387 13.267 23.877 19.421l21.33-45.526c-36.294-24.195-65.371-55.395-87.231-93.599l7.004-10.188h-52.211c-26.531 44.148-58.686 80.759-96.464 109.836 8.701 16.131 16.023 30.351 21.967 42.661 8.277-6.578 16.236-13.371 23.877-20.375 0 23.347-0.214 40.327-0.637 50.939-0.85 37.567-14.007 68.342-39.476 92.325 14.855 12.098 26.211 22.816 34.065 32.155 34.17-27.593 51.255-70.995 51.255-130.209 0.422-11.461 0.637-28.017 0.637-49.664h-41.387c27.166-25.469 49.557-52.849 67.174-82.138 16.34 30.563 37.567 57.838 63.674 81.819h-43.616v175.737z" fill="#272636" p-id="7846"></path></svg>