<?xml version="1.0" standalone="no"?><!DOCTYPE svg PUBLIC "-//W3C//DTD SVG 1.1//EN" "http://www.w3.org/Graphics/SVG/1.1/DTD/svg11.dtd"><svg t="1752072622223" class="icon" viewBox="0 0 1024 1024" version="1.1" xmlns="http://www.w3.org/2000/svg" p-id="4771" xmlns:xlink="http://www.w3.org/1999/xlink" width="200" height="200"><path d="M723.722078 1017.18065l-185.972672-107.417985a51.488739 51.488739 0 0 1-25.638643-44.457936V650.46876a51.541602 51.541602 0 0 1 25.638643-44.457935l185.972672-107.312259a51.224423 51.224423 0 0 1 51.330149 0l185.919809 107.312259a51.488739 51.488739 0 0 1 25.691506 44.457935v214.783106a51.435876 51.435876 0 0 1-25.691506 44.457936l-185.919809 107.365121a51.488739 51.488739 0 0 1-51.330149 0z m-154.36049-155.259164l151.928783 87.700018v-174.448499L569.361588 687.472987z m209.179609-87.700018v174.765678l150.818656-87.06566v-174.765678zM597.80198 637.570144l151.241562 87.541428 151.611604-87.541428-151.294425-87.541429z m27.964623 369.302185H70.914651a33.145215 33.145215 0 0 1-33.198078-31.717909c-0.422905-10.572636-8.828151-258.500957 134.378207-407.469402A336.791329 336.791329 0 0 1 295.530308 485.535634a263.36437 263.36437 0 1 1 286.677033-2.484569 347.892597 347.892597 0 0 1 56.087836 25.850095l-70.836663 39.753113a326.853051 326.853051 0 0 0-87.647155-20.193736l24.792832 58.995311a54.026171 54.026171 0 0 0-6.290719 7.559435 88.545829 88.545829 0 0 0-12.317121 41.074692v43.506398l-45.990968-109.426785L392.904289 687.472987l47.101094 117.3034 45.990968-109.426786v136.387008l-22.202536 52.863182a26.431591 26.431591 0 0 1-48.898443-0.422906l-75.012854-186.76562a25.691506 25.691506 0 0 1 0-19.717966L399.617913 528.883443a283.082336 283.082336 0 0 0-179.417638 84.58109c-96.158127 99.752823-112.968619 261.884201-115.664641 326.958777h421.795324l99.647097 66.396156zM240.129694 263.563135A197.655435 197.655435 0 0 0 433.926117 460.161307h8.986741a196.862488 196.862488 0 1 0-202.783164-196.598172z" p-id="4772"></path></svg>