<?xml version="1.0" standalone="no"?><!DOCTYPE svg PUBLIC "-//W3C//DTD SVG 1.1//EN" "http://www.w3.org/Graphics/SVG/1.1/DTD/svg11.dtd"><svg t="1752032200080" class="icon" viewBox="0 0 1024 1024" version="1.1" xmlns="http://www.w3.org/2000/svg" p-id="4372" xmlns:xlink="http://www.w3.org/1999/xlink" width="200" height="200"><path d="M336.816 303.68c-22.784 0-44.64 9.024-60.72 25.088l-115.76 115.52A85.536 85.536 0 0 0 135.2 504.8v185.92a50.768 50.768 0 0 0 50.848 50.704h70.08a106.736 106.736 0 0 1 105.024-87.376 106.736 106.736 0 0 1 105.04 87.36h140.16a106.736 106.736 0 0 1 105.024-87.36 106.736 106.736 0 0 1 105.024 87.36h17.552a50.768 50.768 0 0 0 50.848-50.688v-122.768H534.08a54.192 54.192 0 0 1-54.224-54.144V303.68h-143.04z m-87.84-2.08a124.384 124.384 0 0 1 87.84-36.32h162.24a19.2 19.2 0 0 1 19.2 19.2v229.344c0 8.64 7.04 15.744 15.824 15.744H904a19.2 19.2 0 0 1 19.2 19.2v141.968c0 49.248-40 89.104-89.248 89.104h-35.024a19.2 19.2 0 0 1-19.2-19.2c0-37.616-30.56-68.176-68.352-68.176a68.256 68.256 0 0 0-68.352 68.16 19.2 19.2 0 0 1-19.2 19.2H448.72a19.2 19.2 0 0 1-19.2-19.2c0-37.6-30.56-68.16-68.368-68.16a68.256 68.256 0 0 0-68.352 68.16 19.2 19.2 0 0 1-19.2 19.2h-87.552a89.168 89.168 0 0 1-89.248-89.088v-185.92c0-32.912 13.104-64.464 36.416-87.712l115.744-115.52z" fill="#000000" p-id="4373"></path><path d="M359.552 691.2a68.256 68.256 0 0 0-68.352 68.16c0 37.616 30.56 68.176 68.352 68.176a68.256 68.256 0 0 0 68.352-68.16c0-37.616-30.56-68.176-68.352-68.176zM252.8 759.36c0-58.88 47.84-106.56 106.752-106.56 58.928 0 106.752 47.68 106.752 106.56 0 58.896-47.84 106.576-106.752 106.576-58.912 0-106.752-47.68-106.752-106.56zM711.552 691.2a68.256 68.256 0 0 0-68.352 68.16c0 37.616 30.56 68.176 68.352 68.176a68.256 68.256 0 0 0 68.368-68.16c0-37.616-30.56-68.176-68.368-68.176zM604.8 759.36c0-58.88 47.84-106.56 106.752-106.56 58.928 0 106.752 47.68 106.752 106.56 0 58.896-47.84 106.576-106.752 106.576-58.912 0-106.752-47.68-106.752-106.56zM336.736 386.432a19.2 19.2 0 0 1-0.032 27.152l-71.136 70.992a19.2 19.2 0 0 1-27.136-27.184l71.152-70.976a19.2 19.2 0 0 1 27.152 0.016zM480.8 208a51.2 51.2 0 0 1 51.2-51.2H872a51.2 51.2 0 0 1 51.2 51.2v336a19.2 19.2 0 0 1-19.2 19.2H532a51.2 51.2 0 0 1-51.2-51.2V208z m51.2-12.8a12.8 12.8 0 0 0-12.8 12.8v304a12.8 12.8 0 0 0 12.8 12.8H884.8V208a12.8 12.8 0 0 0-12.8-12.8H532z" fill="#000000" p-id="4374"></path><path d="M692 252.8a19.2 19.2 0 0 1 19.2 19.2v94.928h87.472a19.2 19.2 0 1 1 0 38.4H692a19.2 19.2 0 0 1-19.2-19.2V272a19.2 19.2 0 0 1 19.2-19.2z" fill="#000000" p-id="4375"></path></svg>