<?xml version="1.0" standalone="no"?><!DOCTYPE svg PUBLIC "-//W3C//DTD SVG 1.1//EN" "http://www.w3.org/Graphics/SVG/1.1/DTD/svg11.dtd"><svg t="1752032390124" class="icon" viewBox="0 0 1092 1024" version="1.1" xmlns="http://www.w3.org/2000/svg" p-id="11514" xmlns:xlink="http://www.w3.org/1999/xlink" width="213.28125" height="200"><path d="M906.581333 0C1008.981333 0 1092.266667 78.506667 1092.266667 175.172267v673.655466C1092.266667 945.425067 1008.981333 1024 906.581333 1024H185.685333C83.285333 1024 0 945.425067 0 848.827733V175.172267C0 78.506667 83.285333 0 185.685333 0zM887.466667 68.266667H204.8a136.533333 136.533333 0 0 0-136.533333 136.533333v614.4c0 82.875733 77.277867 136.533333 136.533333 136.533333h682.666667c59.255467 0 136.533333-53.6576 136.533333-136.533333V204.8a136.533333 136.533333 0 0 0-136.533333-136.533333z m-136.533334 477.866666v29.354667h119.808v35.84h-238.933333c-3.618133 0-5.461333 1.706667-5.461333 5.12v76.458667c0 33.928533-1.8432 63.6928-5.461334 89.429333a451.447467 451.447467 0 0 1-16.042666 70.997333h-45.738667c9.352533-25.941333 15.906133-50.3808 19.797333-73.386666 4.3008-25.258667 6.485333-54.272 6.485334-87.04V602.794667c0-8.192 2.525867-14.813867 7.509333-19.797334a26.350933 26.350933 0 0 1 19.456-7.509333h97.621333V546.133333h40.96zM400.725333 546.133333v267.946667c0 11.810133-3.208533 20.957867-9.557333 27.306667-6.621867 6.621867-16.384 9.898667-29.354667 9.898666-20.48 0-39.799467-1.8432-58.026666-5.461333l-9.216-35.84c17.544533 3.618133 33.792 5.256533 48.810666 4.778667 9.557333-0.887467 14.5408-5.802667 15.018667-14.677334V546.133333h42.325333z m358.4 72.362667v30.037333h107.861334v34.816h-107.861334v31.061334h68.266667c7.304533 0 13.1072 2.184533 17.408 6.485333a23.552 23.552 0 0 1 6.485333 17.408v83.968c0 7.509333-2.184533 13.448533-6.485333 17.749333a23.552 23.552 0 0 1-17.408 6.485334H669.013333a23.552 23.552 0 0 1-17.408-6.485334 23.9616 23.9616 0 0 1-6.485333-17.749333v-83.968c0-7.304533 2.184533-13.1072 6.485333-17.408a23.552 23.552 0 0 1 17.408-6.485333h49.152V618.496h40.96z m48.128 130.048h-118.101333c-3.413333 0-5.12 1.706667-5.12 5.12v53.589333c0 3.413333 1.706667 5.12 5.12 5.12h118.101333c3.413333 0 5.12-1.706667 5.12-5.12v-53.589333c0-3.413333-1.706667-5.12-5.12-5.12zM481.621333 613.034667l49.152 164.522666h-43.690666L440.32 613.034667h41.301333z m-164.864 0l-46.08 164.522666h-44.373333l48.810667-164.522666h41.642666z m79.872-254.976c8.192 0 14.813867 2.525867 19.797334 7.509333 4.983467 4.983467 7.509333 11.605333 7.509333 19.797333v29.696c0 9.762133-0.8192 18.773333-2.389333 26.965334l20.48-11.264v32.768l-58.026667 35.157333-10.24-30.037333 8.192-4.437334c3.413333-11.810133 5.12-24.3712 5.12-37.546666v-32.768c0-3.413333-1.706667-5.12-5.12-5.12h-25.258667c-2.525867 0-3.754667 1.706667-3.754666 5.12v13.994666c0 27.989333-3.754667 49.698133-11.264 65.194667-7.509333 15.496533-20.957867 29.354667-40.277334 41.642667L293.546667 474.453333c8.874667-8.874667 14.882133-18.090667 18.090666-27.648 2.935467-9.352533 4.437333-23.005867 4.437334-40.96v-20.48c0-8.192 2.525867-14.813867 7.509333-19.797333a26.760533 26.760533 0 0 1 19.797333-7.509333h53.248zM665.6 204.8a249.856 249.856 0 0 1-24.576 67.242667 166.912 166.912 0 0 1-43.349333 50.858666h18.432c15.701333 0.2048 23.688533 8.192 23.893333 23.893334v165.546666h-41.642667v-164.522666H570.709333l-12.629333-36.522667c31.880533-27.511467 53.0432-63.010133 63.488-106.496h44.032zM487.765333 204.8a380.381867 380.381867 0 0 1-4.096 42.325333h49.152v31.402667H524.288c-1.365333 60.962133-9.079467 109.7728-23.210667 146.432a518.826667 518.826667 0 0 0 31.402667 47.445333l-10.581333 39.594667c-15.701333-16.384-28.672-32.9728-38.912-49.834667-10.0352 16.861867-22.391467 33.450667-37.205334 49.834667l-10.24-38.912c12.0832-15.496533 21.845333-30.72 29.354667-45.738667a323.9936 323.9936 0 0 1-21.845333-79.872 268.4928 268.4928 0 0 1-8.533334 11.264L424.618667 321.536a259.413333 259.413333 0 0 0 19.456-51.882667c4.778667-19.319467 7.304533-40.96 7.509333-64.853333h36.181333zM389.12 204.8v63.829333h7.168c3.413333 0 5.12-1.706667 5.12-5.12v-47.786666h34.133333v56.32c-0.2048 17.954133-9.352533 27.101867-27.306666 27.306666H335.189333c-11.400533 0-19.2512-3.8912-23.552-11.605333-10.24 40.277333-28.125867 69.8368-53.589333 88.746667h12.288c12.4928 0 18.773333 6.826667 18.773333 20.48V512h-38.229333V400.384H228.010667l-10.24-37.888c28.8768-20.2752 47.445333-45.8752 55.637333-76.8h36.864a32.631467 32.631467 0 0 1-2.389333-13.653333V215.722667h34.133333v47.786666c0 3.413333 1.706667 5.12 5.12 5.12h7.168V204.8h34.816z m444.074667 190.805333c8.192 0 14.813867 2.525867 19.797333 7.509334 4.983467 4.983467 7.509333 11.605333 7.509333 19.797333V477.866667c0 8.192-2.525867 14.813867-7.509333 19.797333a26.760533 26.760533 0 0 1-19.797333 7.509333h-136.533334a26.760533 26.760533 0 0 1-19.797333-7.509333 26.760533 26.760533 0 0 1-7.509333-19.797333v-54.954667c0-8.192 2.525867-14.813867 7.509333-19.797333a26.760533 26.760533 0 0 1 19.797333-7.509334h136.533334z m-18.090667 34.816h-100.352c-3.413333 0-5.12 1.706667-5.12 5.12v29.696c0 3.413333 1.706667 5.12 5.12 5.12h100.352c3.413333 0 5.12-1.706667 5.12-5.12V435.541333c0-3.413333-1.706667-5.12-5.12-5.12zM490.154667 278.528h-13.312a217.088 217.088 0 0 1-10.922667 30.037333h6.144a341.333333 341.333333 0 0 0 9.557333 69.290667c5.666133-25.258667 8.533333-58.368 8.533334-99.328z m367.616 62.805333v34.133334h-182.954667l-3.413333-34.133334h186.368zM422.570667 312.661333v32.085334H317.098667l-3.413334-32.085334H422.570667z m435.2-24.576v34.133334h-182.272l-3.413334-34.133334h185.685334zM307.541333 204.8c-13.653333 48.674133-38.570667 83.421867-74.752 104.106667l-10.581333-36.522667c13.858133-9.352533 24.712533-19.797333 32.426667-31.402667A109.226667 109.226667 0 0 0 269.994667 204.8h37.546666z m478.549334 0v29.354667h84.992v34.816H665.258667l-3.413334-34.816h83.285334V204.8h40.96z" p-id="11515"></path></svg>