<?xml version="1.0" standalone="no"?><!DOCTYPE svg PUBLIC "-//W3C//DTD SVG 1.1//EN" "http://www.w3.org/Graphics/SVG/1.1/DTD/svg11.dtd"><svg t="1775889711491" class="icon" viewBox="0 0 1024 1024" version="1.1" xmlns="http://www.w3.org/2000/svg" p-id="10619" xmlns:xlink="http://www.w3.org/1999/xlink" width="200" height="200"><path d="M805.76 128h-39.68c-12.8-72.32-76.16-128-152.32-128H174.72C113.92 0 64 49.92 64 110.72v802.56c0 60.8 49.92 110.72 110.72 110.72h674.56c61.44 0 110.72-49.92 110.72-110.72V282.24C960 197.12 890.88 128 805.76 128zM896 913.28c0 25.6-21.12 46.72-46.72 46.72H174.72c-25.6 0-46.72-21.12-46.72-46.72V110.72c0-25.6 21.12-46.72 46.72-46.72h439.04c40.96 0 74.88 26.88 86.4 64H279.68c-17.92 0-32 14.08-32 32 0.64 17.92 14.72 32 32 32h525.44c49.92 0 90.88 40.32 90.88 90.24v631.04z" fill="#333333" p-id="10620"></path><path d="M672 576c17.92 0 32-14.08 32-32s-14.08-32-32-32H554.88l124.8-138.88c11.52-13.44 10.88-33.28-2.56-45.44a32.32 32.32 0 0 0-45.44 2.56L512 464 391.68 330.88a32.32 32.32 0 0 0-45.44-2.56c-13.44 11.52-14.08 32-2.56 45.44L469.12 512H352c-17.92 0-32 14.08-32 32s14.08 32 32 32h128v128h-128c-17.92 0-32 14.08-32 32s14.08 32 32 32h128v96c0 17.92 14.08 32 32 32s32-14.08 32-32V768h128c17.92 0 32-14.08 32-32s-14.08-32-32-32h-128V576h128z" fill="#333333" p-id="10621"></path></svg>