<?xml version="1.0" standalone="no"?><!DOCTYPE svg PUBLIC "-//W3C//DTD SVG 1.1//EN" "http://www.w3.org/Graphics/SVG/1.1/DTD/svg11.dtd"><svg t="1767597576658" class="icon" viewBox="0 0 1024 1024" version="1.1" xmlns="http://www.w3.org/2000/svg" p-id="5502" xmlns:xlink="http://www.w3.org/1999/xlink" width="200" height="200"><path d="M200.75008 503.37792H132.992c-34.4832 0-50.66752 1.06496-73.87136 5.10976V452.95104c22.21056 3.97824 38.46144 5.03808 77.91104 5.03808h52.58752c32.42496 0 40.41728-1.05984 65.81248-5.03808-4.11136 30.37184-5.1712 46.44864-5.1712 92.00128v231.89504c7.0912 5.09952 21.30944 15.25248 31.4624 26.33216 66.83648 71.94624 116.43392 84.1472 349.31712 84.1472 147.79904 0 261.248-6.15936 349.44512-18.29888-16.31744 36.4032-17.37216 31.20128-24.33536 63.69792-98.27328 5.10464-206.68416 6.95296-348.25728 6.95296-128.57344 0-215.63904-9.07776-262.31808-28.3136-25.32864-9.07776-45.5424-24.26368-59.65824-35.4048-4.04992-3.97312-9.16992 1.14688-40.53504-33.34656-8.15616-9.1392-19.2256-14.1824-28.37504-14.1824-17.17248 0-37.4016 10.0608-80.90112 52.63872-19.23072 19.09248-30.37184 32.28672-51.65056 60.66688l-44.55936-42.34752c71.87968-71.99744 123.5968-112.32256 160.99328-125.52192l-0.13824-270.4896zM123.80672 92.50816c71.87968 64.7168 109.34272 105.29792 165.97504 178.17088l-42.40896 39.3728C188.6208 228.09088 157.25056 192.68608 87.42912 128.896l36.3776-36.38784z m741.16096 293.376c0 61.95712 2.02752 79.07328 3.05152 89.18016-20.35712-2.1248-44.35968-3.05152-76.91776-3.05152H446.80192v258.20672c24.33536-9.28256 42.55744-15.25248 54.70208-20.36736 75.8528-26.37824 91.26912-28.24192 138.74688-47.52896l2.1248 50.56c-46.55616 18.23232-92.20096 30.3104-149.94944 50.51904-18.176 6.10304-7.936 6.10304-65.6896 25.33888-17.17248 5.03296-18.23232 5.03296-40.50944 13.05088l-22.28224-47.37024c24.2688-9.22112 31.43168-20.29568 31.43168-37.37088V191.6928c0-46.71488-1.05984-77.14816-4.11136-101.42208 22.28224 3.05664 37.2992 4.04992 75.8272 4.04992h315.13088c40.38656 0 63.7952-0.99328 88.13056-4.04992-3.11808 22.21568-5.10976 52.65408-5.10976 93.16864v202.4448h-0.27648z m-50.56512-133.54496V139.84256H446.73024v112.49152h367.67232zM446.73024 427.61728h367.67744V308.03968H446.73024v119.5776z m163.0208 74.7008c49.664 35.47648 58.76224 42.58304 124.73856 94.17728 80.95744-55.6288 120.34048-87.98208 145.65888-121.40032l51.58912 34.31936c-10.14272 7.03488-10.14272 7.03488-28.57472 23.3472-27.1872 22.21056-59.5456 46.40768-128.51712 95.1552 72.01792 60.672 95.36 81.9456 155.96544 140.76928l-34.2528 38.2976c-113.38752-116.44416-186.32704-169.99424-315.83232-264.15104l29.22496-40.51456z" fill="" p-id="5503"></path></svg>