<?xml version="1.0" standalone="no"?><!DOCTYPE svg PUBLIC "-//W3C//DTD SVG 1.1//EN" "http://www.w3.org/Graphics/SVG/1.1/DTD/svg11.dtd"><svg t="1767601471740" class="icon" viewBox="0 0 1024 1024" version="1.1" xmlns="http://www.w3.org/2000/svg" p-id="9414" xmlns:xlink="http://www.w3.org/1999/xlink" width="200" height="200"><path d="M781.8 64H242.2C186.4 64 141 109.4 141 165.2V936c0 13.3 10.8 24.1 24.1 24.1s24.1-10.8 24.1-24.1v-88.6h28.9v41.4c0 10.6 8.6 19.3 19.3 19.3s19.3-8.6 19.3-19.3v-41.4h510.6v41.4c0 10.6 8.6 19.3 19.3 19.3 10.6 0 19.3-8.6 19.3-19.3v-41.4h28.9V936c0 13.3 10.8 24.1 24.1 24.1S883 949.3 883 936V165.2C882.9 109.4 837.5 64 781.8 64zM189.2 477.3v-158h645.5v158H189.2z m53-365.1h539.5c29.2 0 53 23.8 53 53v106H189.2v-106c0-29.3 23.8-53 53-53z m-53 413.3H487v273.6H189.2V525.5z m345.9 273.6V525.5h299.6v273.6H535.1z" fill="#2F2F2F" p-id="9415"></path></svg>