<?xml version="1.0" standalone="no"?><!DOCTYPE svg PUBLIC "-//W3C//DTD SVG 1.1//EN" "http://www.w3.org/Graphics/SVG/1.1/DTD/svg11.dtd"><svg t="1767597304920" class="icon" viewBox="0 0 1024 1024" version="1.1" xmlns="http://www.w3.org/2000/svg" p-id="1639" xmlns:xlink="http://www.w3.org/1999/xlink" width="200" height="200"><path d="M908.8 486.4c-6.4 0-6.4 0-12.8-6.4L492.8 153.6 83.2 480c-6.4 6.4-19.2 6.4-25.6-6.4-6.4-6.4-6.4-19.2 6.4-25.6l422.4-339.2c6.4-6.4 19.2-6.4 25.6 0L921.6 448c6.4 6.4 6.4 19.2 0 25.6 0 6.4-6.4 12.8-12.8 12.8z" fill="#373838" p-id="1640"></path><path d="M768 915.2H217.6c-32 0-64-25.6-64-64v-384c0-12.8 6.4-19.2 19.2-19.2 6.4 0 19.2 6.4 19.2 19.2v384c0 12.8 12.8 25.6 25.6 25.6H768c12.8 0 19.2 6.4 19.2 19.2s-12.8 19.2-19.2 19.2zM812.8 672c-12.8 0-19.2-6.4-19.2-19.2V467.2c0-12.8 6.4-19.2 19.2-19.2 12.8 0 19.2 6.4 19.2 19.2v185.6c0 6.4-6.4 19.2-19.2 19.2z" fill="#373838" p-id="1641"></path><path d="M454.4 620.8H339.2c-12.8 0-19.2-6.4-19.2-19.2V480c0-12.8 6.4-19.2 19.2-19.2h121.6c12.8 0 19.2 6.4 19.2 19.2v121.6c-6.4 12.8-12.8 19.2-25.6 19.2z m-96-38.4h83.2V499.2H358.4v83.2zM454.4 806.4H339.2c-12.8 0-19.2-6.4-19.2-19.2v-121.6c0-12.8 6.4-19.2 19.2-19.2h121.6c12.8 0 19.2 6.4 19.2 19.2v121.6c-6.4 12.8-12.8 19.2-25.6 19.2zM358.4 768h83.2v-83.2H358.4V768zM646.4 620.8H531.2c-12.8 0-19.2-6.4-19.2-19.2V480c0-12.8 6.4-19.2 19.2-19.2h121.6c12.8 0 19.2 6.4 19.2 19.2v121.6c-6.4 12.8-12.8 19.2-25.6 19.2z m-96-38.4h83.2V499.2H550.4v83.2zM953.6 748.8c0 12.8-6.4 19.2-19.2 19.2h-262.4l44.8 44.8c6.4 6.4 6.4 19.2 0 25.6-6.4 6.4-6.4 6.4-12.8 6.4s-12.8 0-12.8-6.4l-76.8-76.8c0-6.4-6.4-6.4-6.4-12.8s0-6.4 6.4-12.8l76.8-76.8c6.4-6.4 19.2-6.4 25.6 0 6.4 6.4 6.4 19.2 0 25.6l-44.8 44.8h262.4c6.4 0 19.2 6.4 19.2 19.2z" fill="#373838" p-id="1642"></path></svg>