<?xml version="1.0" standalone="no"?><!DOCTYPE svg PUBLIC "-//W3C//DTD SVG 1.1//EN" "http://www.w3.org/Graphics/SVG/1.1/DTD/svg11.dtd"><svg t="1767597484751" class="icon" viewBox="0 0 1288 1024" version="1.1" xmlns="http://www.w3.org/2000/svg" p-id="2796" xmlns:xlink="http://www.w3.org/1999/xlink" width="251.5625" height="200"><path d="M688.403616 183.419382a19.711998 19.711998 0 0 1-31.084304 24.26092l-130.175001-164.595182-476.878717 162.813521 104.852666 159.21229c5.951507 9.097845 3.411692 21.342028-5.761969 27.255627a19.825721 19.825721 0 0 1-27.369351-5.761968l-118.688971-180.326873a19.67409 19.67409 0 0 1 10.15926-29.416365l513.270097-175.247243a20.091075 20.091075 0 0 1 22.820429 6.103138l138.742138 175.512596 0.113723 0.189539z" fill="#27AFB7" p-id="2797"></path><path d="M688.403616 207.756117a19.825721 19.825721 0 0 1-27.71052 3.335877 19.67409 19.67409 0 0 1-3.411692-27.596797l138.931677-175.512596a19.863629 19.863629 0 0 1 19.749906-7.088738l432.905798 94.579682a19.711998 19.711998 0 0 1 11.675568 31.084304l-115.883803 178.393581a19.711998 19.711998 0 0 1-32.979688-21.379936l101.023989-155.648968-392.87528-85.860913-131.236416 165.77032-0.189539-0.075816z" fill="#27AFB7" p-id="2798"></path><path d="M690.412724 441.646553a19.711998 19.711998 0 0 1-39.423996-0.265354l2.198646-245.94508a19.711998 19.711998 0 0 1 23.881843-19.02966v-0.113723l455.157612 98.597897a19.711998 19.711998 0 1 1-8.339692 38.552119l-431.465306-93.480359-1.895384 221.68416h-0.113723z" fill="#27AFB7" p-id="2799"></path><path d="M666.53088 176.937167a19.67409 19.67409 0 1 1 12.699076 37.263257l-536.545418 181.19875a19.67409 19.67409 0 1 1-12.699075-37.263258l536.545417-181.198749z" fill="#27AFB7" p-id="2800"></path><path d="M598.676118 984.939539a19.711998 19.711998 0 1 1-9.855998 38.097227l-455.195519-118.271987a19.711998 19.711998 0 0 1-14.821906-19.067567h-0.075816v-286.961199a19.749906 19.749906 0 0 1 39.499811 0v271.836031l440.25989 114.481218 0.189538-0.113723z m-464.217548-592.686704a19.711998 19.711998 0 1 1 8.339691-38.514211l455.157611 98.559989a19.711998 19.711998 0 1 1-8.339691 38.552119l-455.157611-98.559989z" fill="#27AFB7" p-id="2801"></path><path d="M576.803382 461.510182a19.825721 19.825721 0 0 1 27.103997-6.747569 19.636182 19.636182 0 0 1 6.747569 26.990274l-118.688972 197.119978a19.863629 19.863629 0 0 1-21.15249 9.097845v0.075816l-455.157611-98.559989a19.711998 19.711998 0 0 1-11.903014-30.705228l117.89291-195.755301a19.825721 19.825721 0 0 1 27.066089-6.747569 19.636182 19.636182 0 0 1 6.747569 26.952367l-104.511496 173.693027 414.482662 89.765405 111.372787-184.989518v-0.189538z" fill="#27AFB7" p-id="2802"></path><path d="M1121.802214 275.535064a19.598275 19.598275 0 1 1 12.357907 37.263257l-520.662097 172.972781V976.751478l494.69533-164.329828v-296.513936a19.749906 19.749906 0 0 1 39.499811 0v310.653504h-0.075815c0 8.188061-5.231261 15.921229-13.533045 18.574767l-532.489295 176.877273a19.749906 19.749906 0 0 1-27.786335-17.968244V471.745257h0.075815c0-8.188061 5.231261-15.921229 13.533045-18.574767l534.308864-177.40798 0.075815-0.189539z" fill="#27AFB7" p-id="2803"></path><path d="M577.82689 483.193379a19.636182 19.636182 0 0 1 4.283569-27.520981 19.825721 19.825721 0 0 1 27.634704 4.283568l124.640479 168.423859 485.370039-163.382136-108.112727-159.970444a19.598275 19.598275 0 0 1 5.420799-27.21772 19.749906 19.749906 0 0 1 27.331444 5.382892l122.441832 181.236657a19.636182 19.636182 0 0 1-10.15926 29.605904l-522.633296 175.891673a19.711998 19.711998 0 0 1-22.972059-6.747569l-133.245524-179.985703z" fill="#27AFB7" p-id="2804"></path></svg>